999
dxfrw 0.5.4
0
SECTION
2
HEADER
9
$ACADVER
1
AC1021
9
$HANDSEED
5
20000
9
$DWGCODEPAGE
3
ANSI_1252
9
$INSBASE
10
0
20
0
30
0
9
$EXTMIN
10
-130
20
-340
30
0
9
$EXTMAX
10
410
20
320
30
0
9
$LIMMIN
10
0
20
0
9
$LIMMAX
10
420
20
297
9
$ORTHOMODE
70
0
9
$LTSCALE
40
1
9
$TEXTSTYLE
7
STANDARD
9
$DIMASZ
40
2.5
9
$DIMEXO
40
0.625
9
$DIMEXE
40
1.25
9
$DIMTXT
40
2.5
9
$DIMTSZ
40
0
9
$DIMAUNIT
70
0
9
$DIMADEC
70
0
9
$DIMSTYLE
2
STANDARD
9
$DIMGAP
40
0.625
9
$DIMTIH
70
0
9
$LUNITS
70
2
9
$LUPREC
70
4
9
$AUNITS
70
0
9
$AUPREC
70
2
9
$SPLINESEGS
70
8
9
$GRIDMODE
70
1
9
$SNAPSTYLE
70
0
9
$PINSBASE
10
0
20
0
30
0
9
$PLIMMIN
10
0
20
0
9
$PLIMMAX
10
8.26771653543
20
11.6929133858
9
$INSUNITS
70
0
9
$PSVPSCALE
40
0
0
ENDSEC
0
SECTION
2
CLASSES
0
ENDSEC
0
SECTION
2
TABLES
0
TABLE
2
VPORT
5
8
330
0
100
AcDbSymbolTable
70
1
0
VPORT
5
31
330
2
100
AcDbSymbolTableRecord
100
AcDbViewportTableRecord
2
*ACTIVE
70
0
10
0
20
0
11
1
21
1
12
297.797909176
22
238.048647144
13
0
23
0
14
10
24
10
15
10
25
10
16
0
26
0
36
1
17
0
27
0
37
0
40
868.735301926
41
2.11135371179
42
50
43
0
44
0
50
0
51
0
71
0
72
100
73
1
74
3
75
0
76
1
77
0
78
0
281
0
65
1
110
0
120
0
130
0
111
1
121
0
131
0
112
0
122
1
132
0
79
0
146
0
348
10020
60
7
61
5
292
1
282
1
141
0
142
0
63
250
421
3358443
0
ENDTAB
0
TABLE
2
LTYPE
5
5
330
0
100
AcDbSymbolTable
70
4
0
LTYPE
5
14
330
5
100
AcDbSymbolTableRecord
100
AcDbLinetypeTableRecord
2
ByBlock
70
0
3

72
65
73
0
40
0
0
LTYPE
5
15
330
5
100
AcDbSymbolTableRecord
100
AcDbLinetypeTableRecord
2
ByLayer
70
0
3

72
65
73
0
40
0
0
LTYPE
5
16
330
5
100
AcDbSymbolTableRecord
100
AcDbLinetypeTableRecord
2
Continuous
70
0
3
Solid line
72
65
73
0
40
0
0
LTYPE
5
32
330
5
100
AcDbSymbolTableRecord
100
AcDbLinetypeTableRecord
2
DOT
70
0
3
Dot . . . . . . . . . . . . . . . . . . . . . .
72
65
73
2
40
6.35
49
0
74
0
49
-6.35
74
0
0
LTYPE
5
33
330
5
100
AcDbSymbolTableRecord
100
AcDbLinetypeTableRecord
2
DOT2
70
0
3
Dot (.5x) .....................................
72
65
73
2
40
3.175
49
0
74
0
49
-3.175
74
0
0
LTYPE
5
34
330
5
100
AcDbSymbolTableRecord
100
AcDbLinetypeTableRecord
2
DOTX2
70
0
3
Dot (2x) .  .  .  .  .  .  .  .  .  .  .  .  .
72
65
73
2
40
12.7
49
0
74
0
49
-12.7
74
0
0
LTYPE
5
35
330
5
100
AcDbSymbolTableRecord
100
AcDbLinetypeTableRecord
2
DASHED
70
0
3
Dot . . . . . . . . . . . . . . . . . . . . . .
72
65
73
2
40
19.05
49
12.7
74
0
49
-6.35
74
0
0
LTYPE
5
36
330
5
100
AcDbSymbolTableRecord
100
AcDbLinetypeTableRecord
2
DASHED2
70
0
3
Dashed (.5x) _ _ _ _ _ _ _ _ _ _ _ _ _ _ _ _ _
72
65
73
2
40
9.525
49
6.35
74
0
49
-3.175
74
0
0
LTYPE
5
37
330
5
100
AcDbSymbolTableRecord
100
AcDbLinetypeTableRecord
2
DASHEDX2
70
0
3
Dashed (2x) ____  ____  ____  ____  ____  ___
72
65
73
2
40
38.1
49
25.4
74
0
49
-12.7
74
0
0
LTYPE
5
38
330
5
100
AcDbSymbolTableRecord
100
AcDbLinetypeTableRecord
2
DASHDOT
70
0
3
Dash dot __ . __ . __ . __ . __ . __ . __ . __
72
65
73
4
40
25.4
49
12.7
74
0
49
-6.35
74
0
49
0
74
0
49
-6.35
74
0
0
LTYPE
5
39
330
5
100
AcDbSymbolTableRecord
100
AcDbLinetypeTableRecord
2
DASHDOT2
70
0
3
Dash dot (.5x) _._._._._._._._._._._._._._._.
72
65
73
4
40
12.7
49
6.35
74
0
49
-3.175
74
0
49
0
74
0
49
-3.175
74
0
0
LTYPE
5
3A
330
5
100
AcDbSymbolTableRecord
100
AcDbLinetypeTableRecord
2
DASHDOTX2
70
0
3
Dash dot (2x) ____  .  ____  .  ____  .  ___
72
65
73
4
40
50.8
49
25.4
74
0
49
-12.7
74
0
49
0
74
0
49
-12.7
74
0
0
LTYPE
5
3B
330
5
100
AcDbSymbolTableRecord
100
AcDbLinetypeTableRecord
2
DIVIDE
70
0
3
Divide ____ . . ____ . . ____ . . ____ . . ____
72
65
73
6
40
31.75
49
12.7
74
0
49
-6.35
74
0
49
0
74
0
49
-6.35
74
0
49
0
74
0
49
-6.35
74
0
0
LTYPE
5
3C
330
5
100
AcDbSymbolTableRecord
100
AcDbLinetypeTableRecord
2
DIVIDE2
70
0
3
Divide (.5x) __..__..__..__..__..__..__..__.._
72
65
73
6
40
15.875
49
6.35
74
0
49
-3.175
74
0
49
0
74
0
49
-3.175
74
0
49
0
74
0
49
-3.175
74
0
0
LTYPE
5
3D
330
5
100
AcDbSymbolTableRecord
100
AcDbLinetypeTableRecord
2
DIVIDEX2
70
0
3
Divide (2x) ________  .  .  ________  .  .  _
72
65
73
6
40
63.5
49
25.4
74
0
49
-12.7
74
0
49
0
74
0
49
-12.7
74
0
49
0
74
0
49
-12.7
74
0
0
LTYPE
5
3E
330
5
100
AcDbSymbolTableRecord
100
AcDbLinetypeTableRecord
2
BORDER
70
0
3
Border __ __ . __ __ . __ __ . __ __ . __ __ .
72
65
73
6
40
44.45
49
12.7
74
0
49
-6.35
74
0
49
12.7
74
0
49
-6.35
74
0
49
0
74
0
49
-6.35
74
0
0
LTYPE
5
3F
330
5
100
AcDbSymbolTableRecord
100
AcDbLinetypeTableRecord
2
BORDER2
70
0
3
Border (.5x) __.__.__.__.__.__.__.__.__.__.__.
72
65
73
6
40
22.225
49
6.35
74
0
49
-3.175
74
0
49
6.35
74
0
49
-3.175
74
0
49
0
74
0
49
-3.175
74
0
0
LTYPE
5
40
330
5
100
AcDbSymbolTableRecord
100
AcDbLinetypeTableRecord
2
BORDERX2
70
0
3
Border (2x) ____  ____  .  ____  ____  .  ___
72
65
73
6
40
88.9
49
25.4
74
0
49
-12.7
74
0
49
25.4
74
0
49
-12.7
74
0
49
0
74
0
49
-12.7
74
0
0
LTYPE
5
41
330
5
100
AcDbSymbolTableRecord
100
AcDbLinetypeTableRecord
2
CENTER
70
0
3
Center ____ _ ____ _ ____ _ ____ _ ____ _ ____
72
65
73
4
40
50.8
49
31.75
74
0
49
-6.35
74
0
49
6.35
74
0
49
-6.35
74
0
0
LTYPE
5
42
330
5
100
AcDbSymbolTableRecord
100
AcDbLinetypeTableRecord
2
CENTER2
70
0
3
Center (.5x) ___ _ ___ _ ___ _ ___ _ ___ _ ___
72
65
73
4
40
28.575
49
19.05
74
0
49
-3.175
74
0
49
3.175
74
0
49
-3.175
74
0
0
LTYPE
5
43
330
5
100
AcDbSymbolTableRecord
100
AcDbLinetypeTableRecord
2
CENTERX2
70
0
3
Center (2x) ________  __  ________  __  _____
72
65
73
4
40
101.6
49
63.5
74
0
49
-12.7
74
0
49
12.7
74
0
49
-12.7
74
0
0
ENDTAB
0
TABLE
2
LAYER
5
2
330
0
100
AcDbSymbolTable
70
1
0
LAYER
5
10
330
2
100
AcDbSymbolTableRecord
100
AcDbLayerTableRecord
2
0
70
0
62
7
6
CONTINUOUS
370
0
390
F
0
LAYER
5
44
330
2
100
AcDbSymbolTableRecord
100
AcDbLayerTableRecord
2
face1
70
0
62
1
6
CONTINUOUS
370
0
390
F
0
LAYER
5
45
330
2
100
AcDbSymbolTableRecord
100
AcDbLayerTableRecord
2
face2
70
0
62
7
6
CONTINUOUS
370
0
390
F
0
LAYER
5
46
330
2
100
AcDbSymbolTableRecord
100
AcDbLayerTableRecord
2
droite1
70
0
62
3
6
CONTINUOUS
370
0
390
F
0
LAYER
5
47
330
2
100
AcDbSymbolTableRecord
100
AcDbLayerTableRecord
2
droite2
70
0
62
96
6
CONTINUOUS
370
0
390
F
0
LAYER
5
48
330
2
100
AcDbSymbolTableRecord
100
AcDbLayerTableRecord
2
gauche1
70
0
62
4
6
CONTINUOUS
370
0
390
F
0
LAYER
5
49
330
2
100
AcDbSymbolTableRecord
100
AcDbLayerTableRecord
2
gauche2
70
0
62
136
6
CONTINUOUS
370
0
390
F
0
LAYER
5
4A
330
2
100
AcDbSymbolTableRecord
100
AcDbLayerTableRecord
2
haut1
70
0
62
5
6
CONTINUOUS
370
0
390
F
0
LAYER
5
4B
330
2
100
AcDbSymbolTableRecord
100
AcDbLayerTableRecord
2
bas
70
0
62
6
6
CONTINUOUS
370
0
390
F
0
LAYER
5
4C
330
2
100
AcDbSymbolTableRecord
100
AcDbLayerTableRecord
2
fond
70
0
62
176
6
CONTINUOUS
370
0
390
F
0
LAYER
5
4D
330
2
100
AcDbSymbolTableRecord
100
AcDbLayerTableRecord
2
haut2
70
0
62
5
6
CONTINUOUS
370
0
390
F
0
LAYER
5
4E
330
2
100
AcDbSymbolTableRecord
100
AcDbLayerTableRecord
2
face3
70
0
62
7
6
CONTINUOUS
370
0
390
F
0
LAYER
5
4F
330
2
100
AcDbSymbolTableRecord
100
AcDbLayerTableRecord
2
droite3
70
0
62
96
6
CONTINUOUS
370
0
390
F
0
LAYER
5
50
330
2
100
AcDbSymbolTableRecord
100
AcDbLayerTableRecord
2
gauche3
70
0
62
136
6
CONTINUOUS
370
0
390
F
0
LAYER
5
51
330
2
100
AcDbSymbolTableRecord
100
AcDbLayerTableRecord
2
bouton1
70
0
62
2
6
CONTINUOUS
370
0
390
F
0
LAYER
5
52
330
2
100
AcDbSymbolTableRecord
100
AcDbLayerTableRecord
2
bouton2
70
0
62
2
6
CONTINUOUS
370
0
390
F
0
ENDTAB
0
TABLE
2
STYLE
5
3
330
0
100
AcDbSymbolTable
70
3
0
STYLE
5
53
330
2
100
AcDbSymbolTableRecord
100
AcDbTextStyleTableRecord
2
Standard
70
0
40
0
41
1
50
0
71
0
42
1
3
txt
4

0
ENDTAB
0
TABLE
2
VIEW
5
6
330
0
100
AcDbSymbolTable
70
0
0
ENDTAB
0
TABLE
2
UCS
5
7
330
0
100
AcDbSymbolTable
70
0
0
ENDTAB
0
TABLE
2
APPID
5
9
330
0
100
AcDbSymbolTable
70
1
0
APPID
5
12
330
9
100
AcDbSymbolTableRecord
100
AcDbRegAppTableRecord
2
ACAD
70
0
0
ENDTAB
0
TABLE
2
DIMSTYLE
5
A
330
0
100
AcDbSymbolTable
70
1
100
AcDbDimStyleTable
71
1
0
DIMSTYLE
105
54
330
A
100
AcDbSymbolTableRecord
100
AcDbDimStyleTableRecord
2
Standard
70
0
40
1
41
2.5
42
0.625
43
0.38
44
1.25
45
0
46
0
47
0
48
0
140
2.5
141
0.09
142
0
143
25.4
144
1
145
0
146
1
147
0.625
148
0
71
0
72
0
73
0
74
1
75
0
76
0
77
0
78
0
79
0
170
0
171
2
172
0
173
0
174
0
175
0
176
0
177
0
178
0
179
0
271
4
272
4
273
2
274
2
275
0
276
0
277
2
278
46
279
0
280
0
281
0
282
0
283
1
284
0
285
0
286
0
288
0
289
3
340
Standard
341

371
-2
372
-2
0
ENDTAB
0
TABLE
2
BLOCK_RECORD
5
1
330
0
100
AcDbSymbolTable
70
2
0
BLOCK_RECORD
5
1F
330
1
100
AcDbSymbolTableRecord
100
AcDbBlockTableRecord
2
*Model_Space
70
0
280
1
281
0
0
BLOCK_RECORD
5
1E
330
1
100
AcDbSymbolTableRecord
100
AcDbBlockTableRecord
2
*Paper_Space
70
0
280
1
281
0
0
ENDTAB
0
ENDSEC
0
SECTION
2
BLOCKS
0
BLOCK
5
20
330
1F
100
AcDbEntity
8
0
100
AcDbBlockBegin
2
*Model_Space
70
0
10
0
20
0
30
0
3
*Model_Space
1

0
ENDBLK
5
21
330
1F
100
AcDbEntity
8
0
100
AcDbBlockEnd
0
BLOCK
5
1C
330
1B
100
AcDbEntity
8
0
100
AcDbBlockBegin
2
*Paper_Space
70
0
10
0
20
0
30
0
3
*Paper_Space
1

0
ENDBLK
5
1D
330
1F
100
AcDbEntity
8
0
100
AcDbBlockEnd
0
ENDSEC
0
SECTION
2
ENTITIES
0
LINE
5
55
100
AcDbEntity
8
face1
6
ByLayer
62
256
370
0
100
AcDbLine
10
30
20
0
11
50
21
0
0
LINE
5
56
100
AcDbEntity
8
face1
6
ByLayer
62
256
370
0
100
AcDbLine
10
50
20
10
11
50
21
0
0
LINE
5
57
100
AcDbEntity
8
face1
6
ByLayer
62
256
370
0
100
AcDbLine
10
50
20
10
11
70
21
10
0
LINE
5
58
100
AcDbEntity
8
face1
6
ByLayer
62
256
370
0
100
AcDbLine
10
70
20
10
11
70
21
0
0
LINE
5
59
100
AcDbEntity
8
face1
6
ByLayer
62
256
370
0
100
AcDbLine
10
70
20
0
11
90
21
0
0
LINE
5
5A
100
AcDbEntity
8
face1
6
ByLayer
62
256
370
0
100
AcDbLine
10
90
20
10
11
90
21
0
0
LINE
5
5B
100
AcDbEntity
8
face1
6
ByLayer
62
256
370
0
100
AcDbLine
10
90
20
10
11
110
21
10
0
LINE
5
5C
100
AcDbEntity
8
face1
6
ByLayer
62
256
370
0
100
AcDbLine
10
110
20
10
11
110
21
0
0
LINE
5
5D
100
AcDbEntity
8
face1
6
ByLayer
62
256
370
0
100
AcDbLine
10
110
20
0
11
130
21
0
0
LINE
5
5E
100
AcDbEntity
8
face1
6
ByLayer
62
256
370
0
100
AcDbLine
10
130
20
10
11
130
21
0
0
LINE
5
5F
100
AcDbEntity
8
face1
6
ByLayer
62
256
370
0
100
AcDbLine
10
130
20
10
11
150
21
10
0
LINE
5
60
100
AcDbEntity
8
face1
6
ByLayer
62
256
370
0
100
AcDbLine
10
150
20
10
11
150
21
0
0
LINE
5
61
100
AcDbEntity
8
face1
6
ByLayer
62
256
370
0
100
AcDbLine
10
150
20
0
11
170
21
0
0
LINE
5
62
100
AcDbEntity
8
face1
6
ByLayer
62
256
370
0
100
AcDbLine
10
170
20
10
11
170
21
0
0
LINE
5
63
100
AcDbEntity
8
face1
6
ByLayer
62
256
370
0
100
AcDbLine
10
170
20
10
11
190
21
10
0
LINE
5
64
100
AcDbEntity
8
face1
6
ByLayer
62
256
370
0
100
AcDbLine
10
190
20
10
11
190
21
0
0
LINE
5
65
100
AcDbEntity
8
face1
6
ByLayer
62
256
370
0
100
AcDbLine
10
190
20
0
11
210
21
0
0
LINE
5
66
100
AcDbEntity
8
face1
6
ByLayer
62
256
370
0
100
AcDbLine
10
210
20
10
11
210
21
0
0
LINE
5
67
100
AcDbEntity
8
face1
6
ByLayer
62
256
370
0
100
AcDbLine
10
210
20
10
11
230
21
10
0
LINE
5
68
100
AcDbEntity
8
face1
6
ByLayer
62
256
370
0
100
AcDbLine
10
230
20
10
11
230
21
0
0
LINE
5
69
100
AcDbEntity
8
face1
6
ByLayer
62
256
370
0
100
AcDbLine
10
230
20
0
11
250
21
0
0
LINE
5
6A
100
AcDbEntity
8
face1
6
ByLayer
62
256
370
0
100
AcDbLine
10
250
20
10
11
250
21
0
0
LINE
5
6B
100
AcDbEntity
8
face1
6
ByLayer
62
256
370
0
100
AcDbLine
10
30
20
10
11
30
21
0
0
LINE
5
6C
100
AcDbEntity
8
face1
6
ByLayer
62
256
370
0
100
AcDbLine
10
0
20
21.5
11
10
21
21.5
0
LINE
5
6D
100
AcDbEntity
8
face1
6
ByLayer
62
256
370
0
100
AcDbLine
10
10
20
10
11
30
21
10
0
LINE
5
6E
100
AcDbEntity
8
face1
6
ByLayer
62
256
370
0
100
AcDbLine
10
10
20
21.5
11
10
21
10
0
LINE
5
6F
100
AcDbEntity
8
face1
6
ByLayer
62
256
370
0
100
AcDbLine
10
0
20
42.5
11
0
21
21.5
0
LINE
5
70
100
AcDbEntity
8
face1
6
ByLayer
62
256
370
0
100
AcDbLine
10
0
20
42.5
11
10
21
42.5
0
LINE
5
71
100
AcDbEntity
8
face1
6
ByLayer
62
256
370
0
100
AcDbLine
10
10
20
63.5
11
10
21
42.5
0
LINE
5
72
100
AcDbEntity
8
face1
6
ByLayer
62
256
370
0
100
AcDbLine
10
0
20
63.5
11
10
21
63.5
0
LINE
5
73
100
AcDbEntity
8
face1
6
ByLayer
62
256
370
0
100
AcDbLine
10
0
20
84.5
11
0
21
63.5
0
LINE
5
74
100
AcDbEntity
8
face1
6
ByLayer
62
256
370
0
100
AcDbLine
10
0
20
84.5
11
10
21
84.5
0
LINE
5
75
100
AcDbEntity
8
face1
6
ByLayer
62
256
370
0
100
AcDbLine
10
10
20
105.5
11
10
21
84.5
0
LINE
5
76
100
AcDbEntity
8
face1
6
ByLayer
62
256
370
0
100
AcDbLine
10
0
20
105.5
11
10
21
105.5
0
LINE
5
77
100
AcDbEntity
8
face1
6
ByLayer
62
256
370
0
100
AcDbLine
10
0
20
126.5
11
0
21
105.5
0
LINE
5
78
100
AcDbEntity
8
face1
6
ByLayer
62
256
370
0
100
AcDbLine
10
0
20
126.5
11
10
21
126.5
0
LINE
5
79
100
AcDbEntity
8
face1
6
ByLayer
62
256
370
0
100
AcDbLine
10
10
20
147.5
11
10
21
126.5
0
LINE
5
7A
100
AcDbEntity
8
face1
6
ByLayer
62
256
370
0
100
AcDbLine
10
0
20
147.5
11
10
21
147.5
0
LINE
5
7B
100
AcDbEntity
8
face1
6
ByLayer
62
256
370
0
100
AcDbLine
10
0
20
168.5
11
0
21
147.5
0
LINE
5
7C
100
AcDbEntity
8
face1
6
ByLayer
62
256
370
0
100
AcDbLine
10
0
20
168.5
11
10
21
168.5
0
LINE
5
7D
100
AcDbEntity
8
face1
6
ByLayer
62
256
370
0
100
AcDbLine
10
280
20
21.5
11
270
21
21.5
0
LINE
5
7E
100
AcDbEntity
8
face1
6
ByLayer
62
256
370
0
100
AcDbLine
10
250
20
10
11
270
21
10
0
LINE
5
7F
100
AcDbEntity
8
face1
6
ByLayer
62
256
370
0
100
AcDbLine
10
270
20
10
11
270
21
21.5
0
LINE
5
80
100
AcDbEntity
8
face1
6
ByLayer
62
256
370
0
100
AcDbLine
10
280
20
21.5
11
280
21
42.5
0
LINE
5
81
100
AcDbEntity
8
face1
6
ByLayer
62
256
370
0
100
AcDbLine
10
280
20
42.5
11
270
21
42.5
0
LINE
5
82
100
AcDbEntity
8
face1
6
ByLayer
62
256
370
0
100
AcDbLine
10
270
20
42.5
11
270
21
63.5
0
LINE
5
83
100
AcDbEntity
8
face1
6
ByLayer
62
256
370
0
100
AcDbLine
10
280
20
63.5
11
270
21
63.5
0
LINE
5
84
100
AcDbEntity
8
face1
6
ByLayer
62
256
370
0
100
AcDbLine
10
280
20
63.5
11
280
21
84.5
0
LINE
5
85
100
AcDbEntity
8
face1
6
ByLayer
62
256
370
0
100
AcDbLine
10
280
20
84.5
11
270
21
84.5
0
LINE
5
86
100
AcDbEntity
8
face1
6
ByLayer
62
256
370
0
100
AcDbLine
10
270
20
84.5
11
270
21
105.5
0
LINE
5
87
100
AcDbEntity
8
face1
6
ByLayer
62
256
370
0
100
AcDbLine
10
280
20
105.5
11
270
21
105.5
0
LINE
5
88
100
AcDbEntity
8
face1
6
ByLayer
62
256
370
0
100
AcDbLine
10
280
20
105.5
11
280
21
126.5
0
LINE
5
89
100
AcDbEntity
8
face1
6
ByLayer
62
256
370
0
100
AcDbLine
10
280
20
126.5
11
270
21
126.5
0
LINE
5
8A
100
AcDbEntity
8
face1
6
ByLayer
62
256
370
0
100
AcDbLine
10
270
20
126.5
11
270
21
147.5
0
LINE
5
8B
100
AcDbEntity
8
face1
6
ByLayer
62
256
370
0
100
AcDbLine
10
280
20
147.5
11
270
21
147.5
0
LINE
5
8C
100
AcDbEntity
8
face1
6
ByLayer
62
256
370
0
100
AcDbLine
10
280
20
147.5
11
280
21
168.5
0
LINE
5
8D
100
AcDbEntity
8
face1
6
ByLayer
62
256
370
0
100
AcDbLine
10
280
20
168.5
11
270
21
168.5
0
LINE
5
8E
100
AcDbEntity
8
face1
6
ByLayer
62
256
370
0
100
AcDbLine
10
10
20
180
11
10
21
168.5
0
LINE
5
8F
100
AcDbEntity
8
face1
6
ByLayer
62
256
370
0
100
AcDbLine
10
270
20
168.5
11
270
21
180
0
LINE
5
90
100
AcDbEntity
8
face1
6
ByLayer
62
256
370
0
100
AcDbLine
10
50
20
190
11
30
21
190
0
LINE
5
91
100
AcDbEntity
8
face1
6
ByLayer
62
256
370
0
100
AcDbLine
10
50
20
190
11
50
21
180
0
LINE
5
92
100
AcDbEntity
8
face1
6
ByLayer
62
256
370
0
100
AcDbLine
10
70
20
180
11
50
21
180
0
LINE
5
93
100
AcDbEntity
8
face1
6
ByLayer
62
256
370
0
100
AcDbLine
10
70
20
190
11
70
21
180
0
LINE
5
94
100
AcDbEntity
8
face1
6
ByLayer
62
256
370
0
100
AcDbLine
10
90
20
190
11
70
21
190
0
LINE
5
95
100
AcDbEntity
8
face1
6
ByLayer
62
256
370
0
100
AcDbLine
10
90
20
190
11
90
21
180
0
LINE
5
96
100
AcDbEntity
8
face1
6
ByLayer
62
256
370
0
100
AcDbLine
10
110
20
180
11
90
21
180
0
LINE
5
97
100
AcDbEntity
8
face1
6
ByLayer
62
256
370
0
100
AcDbLine
10
110
20
190
11
110
21
180
0
LINE
5
98
100
AcDbEntity
8
face1
6
ByLayer
62
256
370
0
100
AcDbLine
10
130
20
190
11
110
21
190
0
LINE
5
99
100
AcDbEntity
8
face1
6
ByLayer
62
256
370
0
100
AcDbLine
10
130
20
180
11
130
21
190
0
LINE
5
9A
100
AcDbEntity
8
face1
6
ByLayer
62
256
370
0
100
AcDbLine
10
150
20
180
11
130
21
180
0
LINE
5
9B
100
AcDbEntity
8
face1
6
ByLayer
62
256
370
0
100
AcDbLine
10
150
20
180
11
150
21
190
0
LINE
5
9C
100
AcDbEntity
8
face1
6
ByLayer
62
256
370
0
100
AcDbLine
10
170
20
190
11
150
21
190
0
LINE
5
9D
100
AcDbEntity
8
face1
6
ByLayer
62
256
370
0
100
AcDbLine
10
170
20
180
11
170
21
190
0
LINE
5
9E
100
AcDbEntity
8
face1
6
ByLayer
62
256
370
0
100
AcDbLine
10
190
20
180
11
170
21
180
0
LINE
5
9F
100
AcDbEntity
8
face1
6
ByLayer
62
256
370
0
100
AcDbLine
10
190
20
180
11
190
21
190
0
LINE
5
A0
100
AcDbEntity
8
face1
6
ByLayer
62
256
370
0
100
AcDbLine
10
210
20
190
11
190
21
190
0
LINE
5
A1
100
AcDbEntity
8
face1
6
ByLayer
62
256
370
0
100
AcDbLine
10
210
20
180
11
210
21
190
0
LINE
5
A2
100
AcDbEntity
8
face1
6
ByLayer
62
256
370
0
100
AcDbLine
10
230
20
180
11
210
21
180
0
LINE
5
A3
100
AcDbEntity
8
face1
6
ByLayer
62
256
370
0
100
AcDbLine
10
250
20
190
11
230
21
190
0
LINE
5
A4
100
AcDbEntity
8
face1
6
ByLayer
62
256
370
0
100
AcDbLine
10
230
20
180
11
230
21
190
0
LINE
5
A5
100
AcDbEntity
8
face1
6
ByLayer
62
256
370
0
100
AcDbLine
10
270
20
180
11
250
21
180
0
LINE
5
A6
100
AcDbEntity
8
face1
6
ByLayer
62
256
370
0
100
AcDbLine
10
250
20
180
11
250
21
190
0
LINE
5
A7
100
AcDbEntity
8
face1
6
ByLayer
62
256
370
0
100
AcDbLine
10
30
20
180
11
10
21
180
0
LINE
5
A8
100
AcDbEntity
8
face1
6
ByLayer
62
256
370
0
100
AcDbLine
10
30
20
190
11
30
21
180
0
LINE
5
A9
100
AcDbEntity
8
fond
6
ByLayer
62
256
370
0
100
AcDbLine
10
0
20
-330
11
10
21
-330
0
LINE
5
AA
100
AcDbEntity
8
fond
6
ByLayer
62
256
370
0
100
AcDbLine
10
10
20
-330
11
10
21
-340
0
LINE
5
AB
100
AcDbEntity
8
fond
6
ByLayer
62
256
370
0
100
AcDbLine
10
270
20
-340
11
10
21
-340
0
LINE
5
AC
100
AcDbEntity
8
fond
6
ByLayer
62
256
370
0
100
AcDbLine
10
270
20
-330
11
270
21
-340
0
LINE
5
AD
100
AcDbEntity
8
fond
6
ByLayer
62
256
370
0
100
AcDbLine
10
270
20
-330
11
280
21
-330
0
LINE
5
AE
100
AcDbEntity
8
fond
6
ByLayer
62
256
370
0
100
AcDbLine
10
270
20
-150
11
270
21
-160
0
LINE
5
AF
100
AcDbEntity
8
fond
6
ByLayer
62
256
370
0
100
AcDbLine
10
280
20
-160
11
280
21
-330
0
LINE
5
B0
100
AcDbEntity
8
fond
6
ByLayer
62
256
370
0
100
AcDbLine
10
270
20
-160
11
280
21
-160
0
LINE
5
B1
100
AcDbEntity
8
fond
6
ByLayer
62
256
370
0
100
AcDbLine
10
10
20
-150
11
270
21
-150
0
LINE
5
B2
100
AcDbEntity
8
fond
6
ByLayer
62
256
370
0
100
AcDbLine
10
10
20
-150
11
10
21
-160
0
LINE
5
B3
100
AcDbEntity
8
fond
6
ByLayer
62
256
370
0
100
AcDbLine
10
0
20
-330
11
0
21
-160
0
LINE
5
B4
100
AcDbEntity
8
fond
6
ByLayer
62
256
370
0
100
AcDbLine
10
0
20
-160
11
10
21
-160
0
CIRCLE
5
B5
100
AcDbEntity
8
fond
6
ByLayer
62
256
370
0
100
AcDbCircle
10
140
20
-335
40
1.6
0
CIRCLE
5
B6
100
AcDbEntity
8
fond
6
ByLayer
62
256
370
0
100
AcDbCircle
10
275
20
-310
40
1.6
0
CIRCLE
5
B7
100
AcDbEntity
8
fond
6
ByLayer
62
256
370
0
100
AcDbCircle
10
275
20
-180
40
1.6
0
CIRCLE
5
B8
100
AcDbEntity
8
fond
6
ByLayer
62
256
370
0
100
AcDbCircle
10
140
20
-155
40
1.6
0
CIRCLE
5
B9
100
AcDbEntity
8
fond
6
ByLayer
62
256
370
0
100
AcDbCircle
10
5
20
-180
40
1.6
0
CIRCLE
5
BA
100
AcDbEntity
8
fond
6
ByLayer
62
256
370
0
100
AcDbCircle
10
5
20
-310
40
1.6
0
LINE
5
BB
100
AcDbEntity
8
bas
6
ByLayer
62
256
370
0
100
AcDbLine
10
0
20
-90
11
0
21
-70
0
LINE
5
BC
100
AcDbEntity
8
bas
6
ByLayer
62
256
370
0
100
AcDbLine
10
0
20
-50
11
0
21
-30
0
LINE
5
BD
100
AcDbEntity
8
bas
6
ByLayer
62
256
370
0
100
AcDbLine
10
0
20
-90
11
10
21
-90
0
LINE
5
BE
100
AcDbEntity
8
bas
6
ByLayer
62
256
370
0
100
AcDbLine
10
10
20
-110
11
10
21
-90
0
LINE
5
BF
100
AcDbEntity
8
bas
6
ByLayer
62
256
370
0
100
AcDbLine
10
0
20
-70
11
10
21
-70
0
LINE
5
C0
100
AcDbEntity
8
bas
6
ByLayer
62
256
370
0
100
AcDbLine
10
0
20
-50
11
10
21
-50
0
LINE
5
C1
100
AcDbEntity
8
bas
6
ByLayer
62
256
370
0
100
AcDbLine
10
10
20
-70
11
10
21
-50
0
LINE
5
C2
100
AcDbEntity
8
bas
6
ByLayer
62
256
370
0
100
AcDbLine
10
0
20
-30
11
10
21
-30
0
LINE
5
C3
100
AcDbEntity
8
bas
6
ByLayer
62
256
370
0
100
AcDbLine
10
270
20
-90
11
270
21
-110
0
LINE
5
C4
100
AcDbEntity
8
bas
6
ByLayer
62
256
370
0
100
AcDbLine
10
270
20
-90
11
280
21
-90
0
LINE
5
C5
100
AcDbEntity
8
bas
6
ByLayer
62
256
370
0
100
AcDbLine
10
280
20
-70
11
280
21
-90
0
LINE
5
C6
100
AcDbEntity
8
bas
6
ByLayer
62
256
370
0
100
AcDbLine
10
270
20
-70
11
280
21
-70
0
LINE
5
C7
100
AcDbEntity
8
bas
6
ByLayer
62
256
370
0
100
AcDbLine
10
270
20
-50
11
270
21
-70
0
LINE
5
C8
100
AcDbEntity
8
bas
6
ByLayer
62
256
370
0
100
AcDbLine
10
270
20
-50
11
280
21
-50
0
LINE
5
C9
100
AcDbEntity
8
bas
6
ByLayer
62
256
370
0
100
AcDbLine
10
280
20
-30
11
280
21
-50
0
LINE
5
CA
100
AcDbEntity
8
bas
6
ByLayer
62
256
370
0
100
AcDbLine
10
270
20
-30
11
280
21
-30
0
LINE
5
CB
100
AcDbEntity
8
bas
6
ByLayer
62
256
370
0
100
AcDbLine
10
10
20
-30
11
10
21
-10
0
LINE
5
CC
100
AcDbEntity
8
bas
6
ByLayer
62
256
370
0
100
AcDbLine
10
10
20
-10
11
30
21
-10
0
LINE
5
CD
100
AcDbEntity
8
bas
6
ByLayer
62
256
370
0
100
AcDbLine
10
30
20
-10
11
30
21
-20
0
LINE
5
CE
100
AcDbEntity
8
bas
6
ByLayer
62
256
370
0
100
AcDbLine
10
30
20
-20
11
50
21
-20
0
LINE
5
CF
100
AcDbEntity
8
bas
6
ByLayer
62
256
370
0
100
AcDbLine
10
50
20
-10
11
50
21
-20
0
LINE
5
D0
100
AcDbEntity
8
bas
6
ByLayer
62
256
370
0
100
AcDbLine
10
50
20
-10
11
70
21
-10
0
LINE
5
D1
100
AcDbEntity
8
bas
6
ByLayer
62
256
370
0
100
AcDbLine
10
70
20
-10
11
70
21
-20
0
LINE
5
D2
100
AcDbEntity
8
bas
6
ByLayer
62
256
370
0
100
AcDbLine
10
70
20
-20
11
90
21
-20
0
LINE
5
D3
100
AcDbEntity
8
bas
6
ByLayer
62
256
370
0
100
AcDbLine
10
90
20
-10
11
90
21
-20
0
LINE
5
D4
100
AcDbEntity
8
bas
6
ByLayer
62
256
370
0
100
AcDbLine
10
90
20
-10
11
110
21
-10
0
LINE
5
D5
100
AcDbEntity
8
bas
6
ByLayer
62
256
370
0
100
AcDbLine
10
110
20
-10
11
110
21
-20
0
LINE
5
D6
100
AcDbEntity
8
bas
6
ByLayer
62
256
370
0
100
AcDbLine
10
110
20
-20
11
130
21
-20
0
LINE
5
D7
100
AcDbEntity
8
bas
6
ByLayer
62
256
370
0
100
AcDbLine
10
130
20
-10
11
130
21
-20
0
LINE
5
D8
100
AcDbEntity
8
bas
6
ByLayer
62
256
370
0
100
AcDbLine
10
130
20
-10
11
150
21
-10
0
LINE
5
D9
100
AcDbEntity
8
bas
6
ByLayer
62
256
370
0
100
AcDbLine
10
150
20
-10
11
150
21
-20
0
LINE
5
DA
100
AcDbEntity
8
bas
6
ByLayer
62
256
370
0
100
AcDbLine
10
150
20
-20
11
170
21
-20
0
LINE
5
DB
100
AcDbEntity
8
bas
6
ByLayer
62
256
370
0
100
AcDbLine
10
170
20
-10
11
170
21
-20
0
LINE
5
DC
100
AcDbEntity
8
bas
6
ByLayer
62
256
370
0
100
AcDbLine
10
170
20
-10
11
190
21
-10
0
LINE
5
DD
100
AcDbEntity
8
bas
6
ByLayer
62
256
370
0
100
AcDbLine
10
190
20
-10
11
190
21
-20
0
LINE
5
DE
100
AcDbEntity
8
bas
6
ByLayer
62
256
370
0
100
AcDbLine
10
190
20
-20
11
210
21
-20
0
LINE
5
DF
100
AcDbEntity
8
bas
6
ByLayer
62
256
370
0
100
AcDbLine
10
210
20
-10
11
210
21
-20
0
LINE
5
E0
100
AcDbEntity
8
bas
6
ByLayer
62
256
370
0
100
AcDbLine
10
210
20
-10
11
230
21
-10
0
LINE
5
E1
100
AcDbEntity
8
bas
6
ByLayer
62
256
370
0
100
AcDbLine
10
230
20
-10
11
230
21
-20
0
LINE
5
E2
100
AcDbEntity
8
bas
6
ByLayer
62
256
370
0
100
AcDbLine
10
230
20
-20
11
250
21
-20
0
LINE
5
E3
100
AcDbEntity
8
bas
6
ByLayer
62
256
370
0
100
AcDbLine
10
250
20
-10
11
250
21
-20
0
LINE
5
E4
100
AcDbEntity
8
bas
6
ByLayer
62
256
370
0
100
AcDbLine
10
270
20
-10
11
270
21
-30
0
LINE
5
E5
100
AcDbEntity
8
bas
6
ByLayer
62
256
370
0
100
AcDbLine
10
250
20
-10
11
270
21
-10
0
LINE
5
E6
100
AcDbEntity
8
face3
6
ByLayer
62
256
370
0
100
AcDbLine
10
137.3
20
165.75
11
137.3
21
114.25
0
LINE
5
E7
100
AcDbEntity
8
face3
6
ByLayer
62
256
370
0
100
AcDbLine
10
215.7
20
114.25
11
137.3
21
114.25
0
LINE
5
E8
100
AcDbEntity
8
face3
6
ByLayer
62
256
370
0
100
AcDbLine
10
215.7
20
165.75
11
137.3
21
165.75
0
LINE
5
E9
100
AcDbEntity
8
face3
6
ByLayer
62
256
370
0
100
AcDbLine
10
215.7
20
165.75
11
215.7
21
114.25
0
ARC
5
EA
100
AcDbEntity
8
face3
6
ByLayer
62
256
370
0
100
AcDbCircle
10
243
20
165.291796068
40
3
100
AcDbArc
50
63.4349488229
51
180
0
LINE
5
EB
100
AcDbEntity
8
face3
6
ByLayer
62
256
370
0
100
AcDbLine
10
240
20
165.291796068
11
240
21
160
0
ARC
5
EC
100
AcDbEntity
8
face3
6
ByLayer
62
256
370
0
100
AcDbCircle
10
243
20
160
40
3
100
AcDbArc
50
180
51
296.565051177
0
LINE
5
ED
100
AcDbEntity
8
face3
6
ByLayer
62
256
370
0
100
AcDbLine
10
249.633436854
20
165.329179607
11
244.341640786
21
167.975077641
0
LINE
5
EE
100
AcDbEntity
8
face3
6
ByLayer
62
256
370
0
100
AcDbLine
10
249.633436854
20
159.962616461
11
244.341640786
21
157.316718427
0
ARC
5
EF
100
AcDbEntity
8
face3
6
ByLayer
62
256
370
0
100
AcDbCircle
10
248.291796068
20
162.645898034
40
3
100
AcDbArc
50
296.565051177
51
63.4349488229
0
ARC
5
F0
100
AcDbEntity
8
face3
6
ByLayer
62
256
370
0
100
AcDbCircle
10
150.009497517
20
62.1000000365
40
0.999999963458
100
AcDbArc
50
89.6306534978
51
89.9999998474
0
LINE
5
F1
100
AcDbEntity
8
face3
6
ByLayer
62
256
370
0
100
AcDbLine
10
150.00949752
20
63.1
11
130
21
63.1
0
ARC
5
F2
100
AcDbEntity
8
face3
6
ByLayer
62
256
370
0
100
AcDbCircle
10
130
20
61.55
40
1.55
100
AcDbArc
50
90
51
270
0
LINE
5
F3
100
AcDbEntity
8
face3
6
ByLayer
62
256
370
0
100
AcDbLine
10
130
20
60
11
150.00240648
21
60
0
ARC
5
F4
100
AcDbEntity
8
face3
6
ByLayer
62
256
370
0
100
AcDbCircle
10
150.002406483
20
60.9999999635
40
0.999999963458
100
AcDbArc
50
269.630653498
51
269.999999847
0
ARC
5
F5
100
AcDbEntity
8
face3
6
ByLayer
62
256
370
0
100
AcDbCircle
10
150.005952
20
61.55
40
1.55001142778
100
AcDbArc
50
269.630653642
51
89.6306536423
0
ARC
5
F6
100
AcDbEntity
8
face3
6
ByLayer
62
256
370
0
100
AcDbCircle
10
180.009497517
20
62.1000000365
40
0.999999963458
100
AcDbArc
50
89.6306534978
51
89.9999998474
0
LINE
5
F7
100
AcDbEntity
8
face3
6
ByLayer
62
256
370
0
100
AcDbLine
10
180.00949752
20
63.1
11
160
21
63.1
0
ARC
5
F8
100
AcDbEntity
8
face3
6
ByLayer
62
256
370
0
100
AcDbCircle
10
160
20
61.55
40
1.55
100
AcDbArc
50
90
51
270
0
LINE
5
F9
100
AcDbEntity
8
face3
6
ByLayer
62
256
370
0
100
AcDbLine
10
160
20
60
11
180.00240648
21
60
0
ARC
5
FA
100
AcDbEntity
8
face3
6
ByLayer
62
256
370
0
100
AcDbCircle
10
180.002406483
20
60.9999999635
40
0.999999963458
100
AcDbArc
50
269.630653498
51
269.999999847
0
ARC
5
FB
100
AcDbEntity
8
face3
6
ByLayer
62
256
370
0
100
AcDbCircle
10
180.005952
20
61.55
40
1.55001142778
100
AcDbArc
50
269.630653642
51
89.6306536423
0
ARC
5
FC
100
AcDbEntity
8
face3
6
ByLayer
62
256
370
0
100
AcDbCircle
10
210.009497517
20
62.1000000365
40
0.999999963458
100
AcDbArc
50
89.6306534978
51
89.9999998474
0
LINE
5
FD
100
AcDbEntity
8
face3
6
ByLayer
62
256
370
0
100
AcDbLine
10
210.00949752
20
63.1
11
190
21
63.1
0
ARC
5
FE
100
AcDbEntity
8
face3
6
ByLayer
62
256
370
0
100
AcDbCircle
10
190
20
61.55
40
1.55
100
AcDbArc
50
90
51
270
0
LINE
5
FF
100
AcDbEntity
8
face3
6
ByLayer
62
256
370
0
100
AcDbLine
10
190
20
60
11
210.00240648
21
60
0
ARC
5
100
100
AcDbEntity
8
face3
6
ByLayer
62
256
370
0
100
AcDbCircle
10
210.002406483
20
60.9999999635
40
0.999999963458
100
AcDbArc
50
269.630653498
51
269.999999847
0
ARC
5
101
100
AcDbEntity
8
face3
6
ByLayer
62
256
370
0
100
AcDbCircle
10
210.005952
20
61.55
40
1.55001142778
100
AcDbArc
50
269.630653642
51
89.6306536423
0
ARC
5
102
100
AcDbEntity
8
face3
6
ByLayer
62
256
370
0
100
AcDbCircle
10
240.009497517
20
62.1000000365
40
0.999999963458
100
AcDbArc
50
89.6306534978
51
89.9999998474
0
LINE
5
103
100
AcDbEntity
8
face3
6
ByLayer
62
256
370
0
100
AcDbLine
10
240.00949752
20
63.1
11
220
21
63.1
0
ARC
5
104
100
AcDbEntity
8
face3
6
ByLayer
62
256
370
0
100
AcDbCircle
10
220
20
61.55
40
1.55
100
AcDbArc
50
90
51
270
0
LINE
5
105
100
AcDbEntity
8
face3
6
ByLayer
62
256
370
0
100
AcDbLine
10
220
20
60
11
240.00240648
21
60
0
ARC
5
106
100
AcDbEntity
8
face3
6
ByLayer
62
256
370
0
100
AcDbCircle
10
240.002406483
20
60.9999999635
40
0.999999963458
100
AcDbArc
50
269.630653498
51
269.999999847
0
ARC
5
107
100
AcDbEntity
8
face3
6
ByLayer
62
256
370
0
100
AcDbCircle
10
240.005952
20
61.55
40
1.55001142778
100
AcDbArc
50
269.630653642
51
89.6306536423
0
ARC
5
108
100
AcDbEntity
8
face3
6
ByLayer
62
256
370
0
100
AcDbCircle
10
135.009497517
20
52.1000000365
40
0.999999963458
100
AcDbArc
50
89.6306534978
51
89.9999998474
0
LINE
5
109
100
AcDbEntity
8
face3
6
ByLayer
62
256
370
0
100
AcDbLine
10
135.00949752
20
53.1
11
115
21
53.1
0
ARC
5
10A
100
AcDbEntity
8
face3
6
ByLayer
62
256
370
0
100
AcDbCircle
10
115
20
51.55
40
1.55
100
AcDbArc
50
90
51
270
0
LINE
5
10B
100
AcDbEntity
8
face3
6
ByLayer
62
256
370
0
100
AcDbLine
10
115
20
50
11
135.00240648
21
50
0
ARC
5
10C
100
AcDbEntity
8
face3
6
ByLayer
62
256
370
0
100
AcDbCircle
10
135.002406483
20
50.9999999635
40
0.999999963458
100
AcDbArc
50
269.630653498
51
269.999999847
0
ARC
5
10D
100
AcDbEntity
8
face3
6
ByLayer
62
256
370
0
100
AcDbCircle
10
135.005952
20
51.55
40
1.55001142778
100
AcDbArc
50
269.630653642
51
89.6306536423
0
ARC
5
10E
100
AcDbEntity
8
face3
6
ByLayer
62
256
370
0
100
AcDbCircle
10
165.009497517
20
52.1000000365
40
0.999999963458
100
AcDbArc
50
89.6306534978
51
89.9999998474
0
LINE
5
10F
100
AcDbEntity
8
face3
6
ByLayer
62
256
370
0
100
AcDbLine
10
165.00949752
20
53.1
11
145
21
53.1
0
ARC
5
110
100
AcDbEntity
8
face3
6
ByLayer
62
256
370
0
100
AcDbCircle
10
145
20
51.55
40
1.55
100
AcDbArc
50
90
51
270
0
LINE
5
111
100
AcDbEntity
8
face3
6
ByLayer
62
256
370
0
100
AcDbLine
10
145
20
50
11
165.00240648
21
50
0
ARC
5
112
100
AcDbEntity
8
face3
6
ByLayer
62
256
370
0
100
AcDbCircle
10
165.002406483
20
50.9999999635
40
0.999999963458
100
AcDbArc
50
269.630653498
51
269.999999847
0
ARC
5
113
100
AcDbEntity
8
face3
6
ByLayer
62
256
370
0
100
AcDbCircle
10
165.005952
20
51.55
40
1.55001142778
100
AcDbArc
50
269.630653642
51
89.6306536423
0
ARC
5
114
100
AcDbEntity
8
face3
6
ByLayer
62
256
370
0
100
AcDbCircle
10
195.009497517
20
52.1000000365
40
0.999999963458
100
AcDbArc
50
89.6306534978
51
89.9999998474
0
LINE
5
115
100
AcDbEntity
8
face3
6
ByLayer
62
256
370
0
100
AcDbLine
10
195.00949752
20
53.1
11
175
21
53.1
0
ARC
5
116
100
AcDbEntity
8
face3
6
ByLayer
62
256
370
0
100
AcDbCircle
10
175
20
51.55
40
1.55
100
AcDbArc
50
90
51
270
0
LINE
5
117
100
AcDbEntity
8
face3
6
ByLayer
62
256
370
0
100
AcDbLine
10
175
20
50
11
195.00240648
21
50
0
ARC
5
118
100
AcDbEntity
8
face3
6
ByLayer
62
256
370
0
100
AcDbCircle
10
195.002406483
20
50.9999999635
40
0.999999963458
100
AcDbArc
50
269.630653498
51
269.999999847
0
ARC
5
119
100
AcDbEntity
8
face3
6
ByLayer
62
256
370
0
100
AcDbCircle
10
195.005952
20
51.55
40
1.55001142778
100
AcDbArc
50
269.630653642
51
89.6306536423
0
ARC
5
11A
100
AcDbEntity
8
face3
6
ByLayer
62
256
370
0
100
AcDbCircle
10
225.009497517
20
52.1000000365
40
0.999999963458
100
AcDbArc
50
89.6306534978
51
89.9999998474
0
LINE
5
11B
100
AcDbEntity
8
face3
6
ByLayer
62
256
370
0
100
AcDbLine
10
225.00949752
20
53.1
11
205
21
53.1
0
ARC
5
11C
100
AcDbEntity
8
face3
6
ByLayer
62
256
370
0
100
AcDbCircle
10
205
20
51.55
40
1.55
100
AcDbArc
50
90
51
270
0
LINE
5
11D
100
AcDbEntity
8
face3
6
ByLayer
62
256
370
0
100
AcDbLine
10
205
20
50
11
225.00240648
21
50
0
ARC
5
11E
100
AcDbEntity
8
face3
6
ByLayer
62
256
370
0
100
AcDbCircle
10
225.002406483
20
50.9999999635
40
0.999999963458
100
AcDbArc
50
269.630653498
51
269.999999847
0
ARC
5
11F
100
AcDbEntity
8
face3
6
ByLayer
62
256
370
0
100
AcDbCircle
10
225.005952
20
51.55
40
1.55001142778
100
AcDbArc
50
269.630653642
51
89.6306536423
0
ARC
5
120
100
AcDbEntity
8
face3
6
ByLayer
62
256
370
0
100
AcDbCircle
10
255.009497517
20
52.1000000365
40
0.999999963458
100
AcDbArc
50
89.6306534978
51
89.9999998474
0
LINE
5
121
100
AcDbEntity
8
face3
6
ByLayer
62
256
370
0
100
AcDbLine
10
255.00949752
20
53.1
11
235
21
53.1
0
ARC
5
122
100
AcDbEntity
8
face3
6
ByLayer
62
256
370
0
100
AcDbCircle
10
235
20
51.55
40
1.55
100
AcDbArc
50
90
51
270
0
LINE
5
123
100
AcDbEntity
8
face3
6
ByLayer
62
256
370
0
100
AcDbLine
10
235
20
50
11
255.00240648
21
50
0
ARC
5
124
100
AcDbEntity
8
face3
6
ByLayer
62
256
370
0
100
AcDbCircle
10
255.002406483
20
50.9999999635
40
0.999999963458
100
AcDbArc
50
269.630653498
51
269.999999847
0
ARC
5
125
100
AcDbEntity
8
face3
6
ByLayer
62
256
370
0
100
AcDbCircle
10
255.005952
20
51.55
40
1.55001142778
100
AcDbArc
50
269.630653642
51
89.6306536423
0
ARC
5
126
100
AcDbEntity
8
face3
6
ByLayer
62
256
370
0
100
AcDbCircle
10
150.009497517
20
42.1000000365
40
0.999999963458
100
AcDbArc
50
89.6306534978
51
89.9999998474
0
LINE
5
127
100
AcDbEntity
8
face3
6
ByLayer
62
256
370
0
100
AcDbLine
10
150.00949752
20
43.1
11
130
21
43.1
0
ARC
5
128
100
AcDbEntity
8
face3
6
ByLayer
62
256
370
0
100
AcDbCircle
10
130
20
41.55
40
1.55
100
AcDbArc
50
90
51
270
0
LINE
5
129
100
AcDbEntity
8
face3
6
ByLayer
62
256
370
0
100
AcDbLine
10
130
20
40
11
150.00240648
21
40
0
ARC
5
12A
100
AcDbEntity
8
face3
6
ByLayer
62
256
370
0
100
AcDbCircle
10
150.002406483
20
40.9999999635
40
0.999999963458
100
AcDbArc
50
269.630653498
51
269.999999847
0
ARC
5
12B
100
AcDbEntity
8
face3
6
ByLayer
62
256
370
0
100
AcDbCircle
10
150.005952
20
41.55
40
1.55001142778
100
AcDbArc
50
269.630653642
51
89.6306536423
0
ARC
5
12C
100
AcDbEntity
8
face3
6
ByLayer
62
256
370
0
100
AcDbCircle
10
180.009497517
20
42.1000000365
40
0.999999963458
100
AcDbArc
50
89.6306534978
51
89.9999998474
0
LINE
5
12D
100
AcDbEntity
8
face3
6
ByLayer
62
256
370
0
100
AcDbLine
10
180.00949752
20
43.1
11
160
21
43.1
0
ARC
5
12E
100
AcDbEntity
8
face3
6
ByLayer
62
256
370
0
100
AcDbCircle
10
160
20
41.55
40
1.55
100
AcDbArc
50
90
51
270
0
LINE
5
12F
100
AcDbEntity
8
face3
6
ByLayer
62
256
370
0
100
AcDbLine
10
160
20
40
11
180.00240648
21
40
0
ARC
5
130
100
AcDbEntity
8
face3
6
ByLayer
62
256
370
0
100
AcDbCircle
10
180.002406483
20
40.9999999635
40
0.999999963458
100
AcDbArc
50
269.630653498
51
269.999999847
0
ARC
5
131
100
AcDbEntity
8
face3
6
ByLayer
62
256
370
0
100
AcDbCircle
10
180.005952
20
41.55
40
1.55001142778
100
AcDbArc
50
269.630653642
51
89.6306536423
0
ARC
5
132
100
AcDbEntity
8
face3
6
ByLayer
62
256
370
0
100
AcDbCircle
10
210.009497517
20
42.1000000365
40
0.999999963458
100
AcDbArc
50
89.6306534978
51
89.9999998474
0
LINE
5
133
100
AcDbEntity
8
face3
6
ByLayer
62
256
370
0
100
AcDbLine
10
210.00949752
20
43.1
11
190
21
43.1
0
ARC
5
134
100
AcDbEntity
8
face3
6
ByLayer
62
256
370
0
100
AcDbCircle
10
190
20
41.55
40
1.55
100
AcDbArc
50
90
51
270
0
LINE
5
135
100
AcDbEntity
8
face3
6
ByLayer
62
256
370
0
100
AcDbLine
10
190
20
40
11
210.00240648
21
40
0
ARC
5
136
100
AcDbEntity
8
face3
6
ByLayer
62
256
370
0
100
AcDbCircle
10
210.002406483
20
40.9999999635
40
0.999999963458
100
AcDbArc
50
269.630653498
51
269.999999847
0
ARC
5
137
100
AcDbEntity
8
face3
6
ByLayer
62
256
370
0
100
AcDbCircle
10
210.005952
20
41.55
40
1.55001142778
100
AcDbArc
50
269.630653642
51
89.6306536423
0
ARC
5
138
100
AcDbEntity
8
face3
6
ByLayer
62
256
370
0
100
AcDbCircle
10
240.009497517
20
42.1000000365
40
0.999999963458
100
AcDbArc
50
89.6306534978
51
89.9999998474
0
LINE
5
139
100
AcDbEntity
8
face3
6
ByLayer
62
256
370
0
100
AcDbLine
10
240.00949752
20
43.1
11
220
21
43.1
0
ARC
5
13A
100
AcDbEntity
8
face3
6
ByLayer
62
256
370
0
100
AcDbCircle
10
220
20
41.55
40
1.55
100
AcDbArc
50
90
51
270
0
LINE
5
13B
100
AcDbEntity
8
face3
6
ByLayer
62
256
370
0
100
AcDbLine
10
220
20
40
11
240.00240648
21
40
0
ARC
5
13C
100
AcDbEntity
8
face3
6
ByLayer
62
256
370
0
100
AcDbCircle
10
240.002406483
20
40.9999999635
40
0.999999963458
100
AcDbArc
50
269.630653498
51
269.999999847
0
ARC
5
13D
100
AcDbEntity
8
face3
6
ByLayer
62
256
370
0
100
AcDbCircle
10
240.005952
20
41.55
40
1.55001142778
100
AcDbArc
50
269.630653642
51
89.6306536423
0
ARC
5
13E
100
AcDbEntity
8
face3
6
ByLayer
62
256
370
0
100
AcDbCircle
10
135.009497517
20
32.1000000365
40
0.999999963458
100
AcDbArc
50
89.6306534978
51
89.9999998474
0
LINE
5
13F
100
AcDbEntity
8
face3
6
ByLayer
62
256
370
0
100
AcDbLine
10
135.00949752
20
33.1
11
115
21
33.1
0
ARC
5
140
100
AcDbEntity
8
face3
6
ByLayer
62
256
370
0
100
AcDbCircle
10
115
20
31.55
40
1.55
100
AcDbArc
50
90
51
270
0
LINE
5
141
100
AcDbEntity
8
face3
6
ByLayer
62
256
370
0
100
AcDbLine
10
115
20
30
11
135.00240648
21
30
0
ARC
5
142
100
AcDbEntity
8
face3
6
ByLayer
62
256
370
0
100
AcDbCircle
10
135.002406483
20
30.9999999635
40
0.999999963458
100
AcDbArc
50
269.630653498
51
269.999999847
0
ARC
5
143
100
AcDbEntity
8
face3
6
ByLayer
62
256
370
0
100
AcDbCircle
10
135.005952
20
31.55
40
1.55001142778
100
AcDbArc
50
269.630653642
51
89.6306536423
0
ARC
5
144
100
AcDbEntity
8
face3
6
ByLayer
62
256
370
0
100
AcDbCircle
10
165.009497517
20
32.1000000365
40
0.999999963458
100
AcDbArc
50
89.6306534978
51
89.9999998474
0
LINE
5
145
100
AcDbEntity
8
face3
6
ByLayer
62
256
370
0
100
AcDbLine
10
165.00949752
20
33.1
11
145
21
33.1
0
ARC
5
146
100
AcDbEntity
8
face3
6
ByLayer
62
256
370
0
100
AcDbCircle
10
145
20
31.55
40
1.55
100
AcDbArc
50
90
51
270
0
LINE
5
147
100
AcDbEntity
8
face3
6
ByLayer
62
256
370
0
100
AcDbLine
10
145
20
30
11
165.00240648
21
30
0
ARC
5
148
100
AcDbEntity
8
face3
6
ByLayer
62
256
370
0
100
AcDbCircle
10
165.002406483
20
30.9999999635
40
0.999999963458
100
AcDbArc
50
269.630653498
51
269.999999847
0
ARC
5
149
100
AcDbEntity
8
face3
6
ByLayer
62
256
370
0
100
AcDbCircle
10
165.005952
20
31.55
40
1.55001142778
100
AcDbArc
50
269.630653642
51
89.6306536423
0
ARC
5
14A
100
AcDbEntity
8
face3
6
ByLayer
62
256
370
0
100
AcDbCircle
10
195.009497517
20
32.1000000365
40
0.999999963458
100
AcDbArc
50
89.6306534978
51
89.9999998474
0
LINE
5
14B
100
AcDbEntity
8
face3
6
ByLayer
62
256
370
0
100
AcDbLine
10
195.00949752
20
33.1
11
175
21
33.1
0
ARC
5
14C
100
AcDbEntity
8
face3
6
ByLayer
62
256
370
0
100
AcDbCircle
10
175
20
31.55
40
1.55
100
AcDbArc
50
90
51
270
0
LINE
5
14D
100
AcDbEntity
8
face3
6
ByLayer
62
256
370
0
100
AcDbLine
10
175
20
30
11
195.00240648
21
30
0
ARC
5
14E
100
AcDbEntity
8
face3
6
ByLayer
62
256
370
0
100
AcDbCircle
10
195.002406483
20
30.9999999635
40
0.999999963458
100
AcDbArc
50
269.630653498
51
269.999999847
0
ARC
5
14F
100
AcDbEntity
8
face3
6
ByLayer
62
256
370
0
100
AcDbCircle
10
195.005952
20
31.55
40
1.55001142778
100
AcDbArc
50
269.630653642
51
89.6306536423
0
ARC
5
150
100
AcDbEntity
8
face3
6
ByLayer
62
256
370
0
100
AcDbCircle
10
225.009497517
20
32.1000000365
40
0.999999963458
100
AcDbArc
50
89.6306534978
51
89.9999998474
0
LINE
5
151
100
AcDbEntity
8
face3
6
ByLayer
62
256
370
0
100
AcDbLine
10
225.00949752
20
33.1
11
205
21
33.1
0
ARC
5
152
100
AcDbEntity
8
face3
6
ByLayer
62
256
370
0
100
AcDbCircle
10
205
20
31.55
40
1.55
100
AcDbArc
50
90
51
270
0
LINE
5
153
100
AcDbEntity
8
face3
6
ByLayer
62
256
370
0
100
AcDbLine
10
205
20
30
11
225.00240648
21
30
0
ARC
5
154
100
AcDbEntity
8
face3
6
ByLayer
62
256
370
0
100
AcDbCircle
10
225.002406483
20
30.9999999635
40
0.999999963458
100
AcDbArc
50
269.630653498
51
269.999999847
0
ARC
5
155
100
AcDbEntity
8
face3
6
ByLayer
62
256
370
0
100
AcDbCircle
10
225.005952
20
31.55
40
1.55001142778
100
AcDbArc
50
269.630653642
51
89.6306536423
0
ARC
5
156
100
AcDbEntity
8
face3
6
ByLayer
62
256
370
0
100
AcDbCircle
10
255.009497517
20
32.1000000365
40
0.999999963458
100
AcDbArc
50
89.6306534978
51
89.9999998474
0
LINE
5
157
100
AcDbEntity
8
face3
6
ByLayer
62
256
370
0
100
AcDbLine
10
255.00949752
20
33.1
11
235
21
33.1
0
ARC
5
158
100
AcDbEntity
8
face3
6
ByLayer
62
256
370
0
100
AcDbCircle
10
235
20
31.55
40
1.55
100
AcDbArc
50
90
51
270
0
LINE
5
159
100
AcDbEntity
8
face3
6
ByLayer
62
256
370
0
100
AcDbLine
10
235
20
30
11
255.00240648
21
30
0
ARC
5
15A
100
AcDbEntity
8
face3
6
ByLayer
62
256
370
0
100
AcDbCircle
10
255.002406483
20
30.9999999635
40
0.999999963458
100
AcDbArc
50
269.630653498
51
269.999999847
0
ARC
5
15B
100
AcDbEntity
8
face3
6
ByLayer
62
256
370
0
100
AcDbCircle
10
255.005952
20
31.55
40
1.55001142778
100
AcDbArc
50
269.630653642
51
89.6306536423
0
ARC
5
15C
100
AcDbEntity
8
face3
6
ByLayer
62
256
370
0
100
AcDbCircle
10
150.009497517
20
22.1000000365
40
0.999999963458
100
AcDbArc
50
89.6306534978
51
89.9999998474
0
LINE
5
15D
100
AcDbEntity
8
face3
6
ByLayer
62
256
370
0
100
AcDbLine
10
150.00949752
20
23.1
11
130
21
23.1
0
ARC
5
15E
100
AcDbEntity
8
face3
6
ByLayer
62
256
370
0
100
AcDbCircle
10
130
20
21.55
40
1.55
100
AcDbArc
50
90
51
270
0
LINE
5
15F
100
AcDbEntity
8
face3
6
ByLayer
62
256
370
0
100
AcDbLine
10
130
20
20
11
150.00240648
21
20
0
ARC
5
160
100
AcDbEntity
8
face3
6
ByLayer
62
256
370
0
100
AcDbCircle
10
150.002406483
20
20.9999999635
40
0.999999963458
100
AcDbArc
50
269.630653498
51
269.999999847
0
ARC
5
161
100
AcDbEntity
8
face3
6
ByLayer
62
256
370
0
100
AcDbCircle
10
150.005952
20
21.55
40
1.55001142778
100
AcDbArc
50
269.630653642
51
89.6306536423
0
ARC
5
162
100
AcDbEntity
8
face3
6
ByLayer
62
256
370
0
100
AcDbCircle
10
180.009497517
20
22.1000000365
40
0.999999963458
100
AcDbArc
50
89.6306534978
51
89.9999998474
0
LINE
5
163
100
AcDbEntity
8
face3
6
ByLayer
62
256
370
0
100
AcDbLine
10
180.00949752
20
23.1
11
160
21
23.1
0
ARC
5
164
100
AcDbEntity
8
face3
6
ByLayer
62
256
370
0
100
AcDbCircle
10
160
20
21.55
40
1.55
100
AcDbArc
50
90
51
270
0
LINE
5
165
100
AcDbEntity
8
face3
6
ByLayer
62
256
370
0
100
AcDbLine
10
160
20
20
11
180.00240648
21
20
0
ARC
5
166
100
AcDbEntity
8
face3
6
ByLayer
62
256
370
0
100
AcDbCircle
10
180.002406483
20
20.9999999635
40
0.999999963458
100
AcDbArc
50
269.630653498
51
269.999999847
0
ARC
5
167
100
AcDbEntity
8
face3
6
ByLayer
62
256
370
0
100
AcDbCircle
10
180.005952
20
21.55
40
1.55001142778
100
AcDbArc
50
269.630653642
51
89.6306536423
0
ARC
5
168
100
AcDbEntity
8
face3
6
ByLayer
62
256
370
0
100
AcDbCircle
10
210.009497517
20
22.1000000365
40
0.999999963458
100
AcDbArc
50
89.6306534978
51
89.9999998474
0
LINE
5
169
100
AcDbEntity
8
face3
6
ByLayer
62
256
370
0
100
AcDbLine
10
210.00949752
20
23.1
11
190
21
23.1
0
ARC
5
16A
100
AcDbEntity
8
face3
6
ByLayer
62
256
370
0
100
AcDbCircle
10
190
20
21.55
40
1.55
100
AcDbArc
50
90
51
270
0
LINE
5
16B
100
AcDbEntity
8
face3
6
ByLayer
62
256
370
0
100
AcDbLine
10
190
20
20
11
210.00240648
21
20
0
ARC
5
16C
100
AcDbEntity
8
face3
6
ByLayer
62
256
370
0
100
AcDbCircle
10
210.002406483
20
20.9999999635
40
0.999999963458
100
AcDbArc
50
269.630653498
51
269.999999847
0
ARC
5
16D
100
AcDbEntity
8
face3
6
ByLayer
62
256
370
0
100
AcDbCircle
10
210.005952
20
21.55
40
1.55001142778
100
AcDbArc
50
269.630653642
51
89.6306536423
0
ARC
5
16E
100
AcDbEntity
8
face3
6
ByLayer
62
256
370
0
100
AcDbCircle
10
240.009497517
20
22.1000000365
40
0.999999963458
100
AcDbArc
50
89.6306534978
51
89.9999998474
0
LINE
5
16F
100
AcDbEntity
8
face3
6
ByLayer
62
256
370
0
100
AcDbLine
10
240.00949752
20
23.1
11
220
21
23.1
0
ARC
5
170
100
AcDbEntity
8
face3
6
ByLayer
62
256
370
0
100
AcDbCircle
10
220
20
21.55
40
1.55
100
AcDbArc
50
90
51
270
0
LINE
5
171
100
AcDbEntity
8
face3
6
ByLayer
62
256
370
0
100
AcDbLine
10
220
20
20
11
240.00240648
21
20
0
ARC
5
172
100
AcDbEntity
8
face3
6
ByLayer
62
256
370
0
100
AcDbCircle
10
240.002406483
20
20.9999999635
40
0.999999963458
100
AcDbArc
50
269.630653498
51
269.999999847
0
ARC
5
173
100
AcDbEntity
8
face3
6
ByLayer
62
256
370
0
100
AcDbCircle
10
240.005952
20
21.55
40
1.55001142778
100
AcDbArc
50
269.630653642
51
89.6306536423
0
LINE
5
174
100
AcDbEntity
8
droite3
6
ByLayer
62
256
370
0
100
AcDbLine
10
352.7
20
153.019933774
11
352.7
21
146.980066226
0
ARC
5
175
100
AcDbEntity
8
droite3
6
ByLayer
62
256
370
0
100
AcDbCircle
10
360
20
150
40
7.89999999997
100
AcDbArc
50
202.47436882
51
337.52563118
0
LINE
5
176
100
AcDbEntity
8
droite3
6
ByLayer
62
256
370
0
100
AcDbLine
10
367.3
20
146.980066226
11
367.3
21
153.019933774
0
ARC
5
177
100
AcDbEntity
8
droite3
6
ByLayer
62
256
370
0
100
AcDbCircle
10
360
20
150
40
7.89999999999
100
AcDbArc
50
22.4743688202
51
157.52563118
0
LINE
5
178
100
AcDbEntity
8
droite3
6
ByLayer
62
256
370
0
100
AcDbLine
10
367.3
20
116.980066226
11
367.3
21
123.019933774
0
ARC
5
179
100
AcDbEntity
8
droite3
6
ByLayer
62
256
370
0
100
AcDbCircle
10
360
20
120
40
7.89999999999
100
AcDbArc
50
22.4743688202
51
157.52563118
0
LINE
5
17A
100
AcDbEntity
8
droite3
6
ByLayer
62
256
370
0
100
AcDbLine
10
352.7
20
123.019933774
11
352.7
21
116.980066226
0
ARC
5
17B
100
AcDbEntity
8
droite3
6
ByLayer
62
256
370
0
100
AcDbCircle
10
360
20
120
40
7.89999999997
100
AcDbArc
50
202.47436882
51
337.52563118
0
ARC
5
17C
100
AcDbEntity
8
droite3
6
ByLayer
62
256
370
0
100
AcDbCircle
10
360
20
90
40
7.89999999999
100
AcDbArc
50
22.4743688202
51
157.52563118
0
LINE
5
17D
100
AcDbEntity
8
droite3
6
ByLayer
62
256
370
0
100
AcDbLine
10
352.7
20
93.0199337741
11
352.7
21
86.980066226
0
ARC
5
17E
100
AcDbEntity
8
droite3
6
ByLayer
62
256
370
0
100
AcDbCircle
10
360
20
90
40
7.89999999997
100
AcDbArc
50
202.47436882
51
337.52563118
0
LINE
5
17F
100
AcDbEntity
8
droite3
6
ByLayer
62
256
370
0
100
AcDbLine
10
367.3
20
86.9800662259
11
367.3
21
93.0199337741
0
CIRCLE
5
180
100
AcDbEntity
8
droite2
6
ByLayer
62
256
370
0
100
AcDbCircle
10
360
20
150
40
13
0
CIRCLE
5
181
100
AcDbEntity
8
droite2
6
ByLayer
62
256
370
0
100
AcDbCircle
10
360
20
120
40
13
0
CIRCLE
5
182
100
AcDbEntity
8
droite2
6
ByLayer
62
256
370
0
100
AcDbCircle
10
360
20
90
40
13
0
LWPOLYLINE
5
183
100
AcDbEntity
8
droite3
6
ByLayer
62
256
370
0
100
AcDbPolyline
90
8
70
1
43
0
10
340
20
53
10
335
20
53
10
335
20
38
10
320
20
38
10
320
20
86
10
326
20
86
10
326
20
71
10
340
20
71
0
ARC
5
184
100
AcDbEntity
8
droite2
6
ByLayer
62
256
370
0
100
AcDbCircle
10
342
20
36
40
3
100
AcDbArc
50
270
51
360
0
LINE
5
185
100
AcDbEntity
8
droite2
6
ByLayer
62
256
370
0
100
AcDbLine
10
342
20
33
11
318
21
33
0
ARC
5
186
100
AcDbEntity
8
droite2
6
ByLayer
62
256
370
0
100
AcDbCircle
10
318
20
36
40
3
100
AcDbArc
50
180
51
270
0
LINE
5
187
100
AcDbEntity
8
droite2
6
ByLayer
62
256
370
0
100
AcDbLine
10
315
20
36
11
315
21
88
0
ARC
5
188
100
AcDbEntity
8
droite2
6
ByLayer
62
256
370
0
100
AcDbCircle
10
318
20
88
40
3
100
AcDbArc
50
90
51
180
0
LINE
5
189
100
AcDbEntity
8
droite2
6
ByLayer
62
256
370
0
100
AcDbLine
10
318
20
91
11
342
21
91
0
ARC
5
18A
100
AcDbEntity
8
droite2
6
ByLayer
62
256
370
0
100
AcDbCircle
10
342
20
88
40
3
100
AcDbArc
50
9.23633079497e-012
51
90
0
LINE
5
18B
100
AcDbEntity
8
droite2
6
ByLayer
62
256
370
0
100
AcDbLine
10
345
20
88
11
345
21
36
0
CIRCLE
5
18C
100
AcDbEntity
8
face3
6
ByLayer
62
256
370
0
100
AcDbCircle
10
245
20
140
40
3.5
0
LWPOLYLINE
5
18D
100
AcDbEntity
8
gauche2
6
ByLayer
62
256
370
0
100
AcDbPolyline
90
4
70
1
43
0
10
-92.5
20
79.25
10
-92.5
20
100.25
10
-77.5
20
100.25
10
-77.5
20
79.25
0
LWPOLYLINE
5
18E
100
AcDbEntity
8
gauche3
6
ByLayer
62
256
370
0
100
AcDbPolyline
90
4
70
1
43
0
10
-78.5
20
99.75
10
-91.5
20
99.75
10
-91.5
20
79.75
10
-78.5
20
79.75
0
CIRCLE
5
18F
100
AcDbEntity
8
gauche3
6
ByLayer
62
256
370
0
100
AcDbCircle
10
-85
20
66
40
1.7
0
ARC
5
190
100
AcDbEntity
8
gauche3
6
ByLayer
62
256
370
0
100
AcDbCircle
10
-93
20
33.75
40
2
100
AcDbArc
50
180
51
270
0
LINE
5
191
100
AcDbEntity
8
gauche3
6
ByLayer
62
256
370
0
100
AcDbLine
10
-95
20
33.75
11
-95
21
57.75
0
ARC
5
192
100
AcDbEntity
8
gauche3
6
ByLayer
62
256
370
0
100
AcDbCircle
10
-93
20
57.75
40
2
100
AcDbArc
50
90
51
180
0
LINE
5
193
100
AcDbEntity
8
gauche3
6
ByLayer
62
256
370
0
100
AcDbLine
10
-93
20
59.75
11
-77
21
59.75
0
ARC
5
194
100
AcDbEntity
8
gauche3
6
ByLayer
62
256
370
0
100
AcDbCircle
10
-77
20
57.75
40
2
100
AcDbArc
50
9.36355298223e-012
51
90
0
LINE
5
195
100
AcDbEntity
8
gauche3
6
ByLayer
62
256
370
0
100
AcDbLine
10
-75
20
57.75
11
-75
21
33.75
0
ARC
5
196
100
AcDbEntity
8
gauche3
6
ByLayer
62
256
370
0
100
AcDbCircle
10
-77
20
33.75
40
2
100
AcDbArc
50
270
51
360
0
LINE
5
197
100
AcDbEntity
8
gauche3
6
ByLayer
62
256
370
0
100
AcDbLine
10
-77
20
31.75
11
-93
21
31.75
0
CIRCLE
5
198
100
AcDbEntity
8
face2
6
ByLayer
62
256
370
0
100
AcDbCircle
10
245
20
140
40
7.5
0
LINE
5
199
100
AcDbEntity
8
bouton1
6
ByLayer
62
256
370
9
100
AcDbLine
10
249.409830056
20
160.409830056
11
244.118033988
21
157.763932022
0
ARC
5
19A
100
AcDbEntity
8
bouton1
6
ByLayer
62
256
370
9
100
AcDbCircle
10
248.291796068
20
162.645898034
40
2.5
100
AcDbArc
50
296.565051177
51
63.4349488229
0
LINE
5
19B
100
AcDbEntity
8
bouton1
6
ByLayer
62
256
370
9
100
AcDbLine
10
249.409830056
20
164.881966012
11
244.118033988
21
167.527864046
0
ARC
5
19C
100
AcDbEntity
8
bouton1
6
ByLayer
62
256
370
9
100
AcDbCircle
10
243
20
165.291796068
40
2.5
100
AcDbArc
50
63.4349488229
51
180
0
LINE
5
19D
100
AcDbEntity
8
bouton1
6
ByLayer
62
256
370
9
100
AcDbLine
10
240.5
20
165.291796068
11
240.5
21
160
0
ARC
5
19E
100
AcDbEntity
8
bouton1
6
ByLayer
62
256
370
9
100
AcDbCircle
10
243
20
160
40
2.5
100
AcDbArc
50
180
51
296.565051177
0
LINE
5
19F
100
AcDbEntity
8
bouton2
6
ByLayer
62
256
370
9
100
AcDbLine
10
238
20
165.291796068
11
238
21
160
0
ARC
5
1A0
100
AcDbEntity
8
bouton2
6
ByLayer
62
256
370
9
100
AcDbCircle
10
243
20
165.291796068
40
5
100
AcDbArc
50
63.4349488229
51
180
0
LINE
5
1A1
100
AcDbEntity
8
bouton2
6
ByLayer
62
256
370
9
100
AcDbLine
10
250.527864045
20
167.118033989
11
245.236067977
21
169.763932023
0
ARC
5
1A2
100
AcDbEntity
8
bouton2
6
ByLayer
62
256
370
9
100
AcDbCircle
10
248.291796068
20
162.645898034
40
5
100
AcDbArc
50
296.565051177
51
63.4349488229
0
LINE
5
1A3
100
AcDbEntity
8
bouton2
6
ByLayer
62
256
370
9
100
AcDbLine
10
250.527864045
20
158.173762079
11
245.236067977
21
155.527864045
0
ARC
5
1A4
100
AcDbEntity
8
bouton2
6
ByLayer
62
256
370
9
100
AcDbCircle
10
243
20
160
40
5
100
AcDbArc
50
180
51
296.565051177
0
CIRCLE
5
1A5
100
AcDbEntity
8
gauche3
6
ByLayer
62
256
370
0
100
AcDbCircle
10
-85
20
26
40
1.7
0
CIRCLE
5
1A6
100
AcDbEntity
8
gauche3
6
ByLayer
62
256
370
0
100
AcDbCircle
10
-85
20
154
40
1.7
0
CIRCLE
5
1A7
100
AcDbEntity
8
gauche3
6
ByLayer
62
256
370
0
100
AcDbCircle
10
-85
20
114
40
1.7
0
ARC
5
1A8
100
AcDbEntity
8
gauche3
6
ByLayer
62
256
370
30
100
AcDbCircle
10
-94.5
20
147.15
40
3
100
AcDbArc
50
90
51
180
0
LINE
5
1A9
100
AcDbEntity
8
gauche3
6
ByLayer
62
256
370
30
100
AcDbLine
10
-94.5
20
150.15
11
-75.5
21
150.15
0
ARC
5
1AA
100
AcDbEntity
8
gauche3
6
ByLayer
62
256
370
30
100
AcDbCircle
10
-75.5
20
147.15
40
3
100
AcDbArc
50
0
51
90
0
LINE
5
1AB
100
AcDbEntity
8
gauche3
6
ByLayer
62
256
370
30
100
AcDbLine
10
-72.5
20
147.15
11
-72.5
21
120.35
0
ARC
5
1AC
100
AcDbEntity
8
gauche3
6
ByLayer
62
256
370
30
100
AcDbCircle
10
-75.5
20
120.35
40
3
100
AcDbArc
50
270
51
0
0
LINE
5
1AD
100
AcDbEntity
8
gauche3
6
ByLayer
62
256
370
30
100
AcDbLine
10
-97.5
20
147.15
11
-97.5
21
120.35
0
LINE
5
1AE
100
AcDbEntity
8
gauche3
6
ByLayer
62
256
370
30
100
AcDbLine
10
-94.5
20
117.35
11
-75.5
21
117.35
0
ARC
5
1AF
100
AcDbEntity
8
gauche3
6
ByLayer
62
256
370
30
100
AcDbCircle
10
-94.5
20
120.35
40
3
100
AcDbArc
50
180
51
270
0
ARC
5
1B0
100
AcDbEntity
8
gauche2
6
ByLayer
62
256
370
30
100
AcDbCircle
10
-97.5
20
149.592221138
40
2
100
AcDbArc
50
120.672325782
51
180
0
LINE
5
1B1
100
AcDbEntity
8
gauche2
6
ByLayer
62
256
370
30
100
AcDbLine
10
-98.5202550888
20
151.312418671
11
-86.0202550888
21
158.726211775
0
ARC
5
1B2
100
AcDbEntity
8
gauche2
6
ByLayer
62
256
370
30
100
AcDbCircle
10
-85
20
157.006014242
40
2
100
AcDbArc
50
59.3276742177
51
120.672325782
0
LINE
5
1B3
100
AcDbEntity
8
gauche2
6
ByLayer
62
256
370
30
100
AcDbLine
10
-83.9797449112
20
158.726211775
11
-71.4797449112
21
151.312418671
0
ARC
5
1B4
100
AcDbEntity
8
gauche2
6
ByLayer
62
256
370
30
100
AcDbCircle
10
-72.5
20
149.592221138
40
2
100
AcDbArc
50
0
51
59.3276742177
0
LINE
5
1B5
100
AcDbEntity
8
gauche2
6
ByLayer
62
256
370
30
100
AcDbLine
10
-70.5
20
149.592221138
11
-70.5
21
117.907778862
0
ARC
5
1B6
100
AcDbEntity
8
gauche2
6
ByLayer
62
256
370
30
100
AcDbCircle
10
-72.5
20
117.907778862
40
2
100
AcDbArc
50
300.672325782
51
0
0
LINE
5
1B7
100
AcDbEntity
8
gauche2
6
ByLayer
62
256
370
30
100
AcDbLine
10
-83.9797449112
20
108.773788225
11
-71.4797449112
21
116.187581329
0
ARC
5
1B8
100
AcDbEntity
8
gauche2
6
ByLayer
62
256
370
30
100
AcDbCircle
10
-85
20
110.493985758
40
2
100
AcDbArc
50
239.327674218
51
300.672325782
0
LINE
5
1B9
100
AcDbEntity
8
gauche2
6
ByLayer
62
256
370
30
100
AcDbLine
10
-99.5
20
149.592221138
11
-99.5
21
117.907778862
0
LINE
5
1BA
100
AcDbEntity
8
gauche2
6
ByLayer
62
256
370
30
100
AcDbLine
10
-86.0202550888
20
108.773788225
11
-98.5202550888
21
116.187581329
0
ARC
5
1BB
100
AcDbEntity
8
gauche2
6
ByLayer
62
256
370
30
100
AcDbCircle
10
-97.5
20
117.907778862
40
2
100
AcDbArc
50
180
51
239.327674218
0
ARC
5
1BC
100
AcDbEntity
8
gauche2
6
ByLayer
62
256
370
30
100
AcDbCircle
10
-94.5
20
59.7540916883
40
2
100
AcDbArc
50
133.96234448
51
180
0
LINE
5
1BD
100
AcDbEntity
8
gauche2
6
ByLayer
62
256
370
30
100
AcDbLine
10
-95.8883709223
20
61.1936840549
11
-86.3876053914
21
70.356407412
0
ARC
5
1BE
100
AcDbEntity
8
gauche2
6
ByLayer
62
256
370
30
100
AcDbCircle
10
-84.9992344691
20
68.9168150453
40
2
100
AcDbArc
50
46.0797657408
51
133.96234448
0
LINE
5
1BF
100
AcDbEntity
8
gauche2
6
ByLayer
62
256
370
30
100
AcDbLine
10
-83.6119219674
20
70.3574274229
11
-74.1126874983
21
61.2096462846
0
ARC
5
1C0
100
AcDbEntity
8
gauche2
6
ByLayer
62
256
370
30
100
AcDbCircle
10
-75.5
20
59.769033907
40
2
100
AcDbArc
50
0
51
46.0797657408
0
LINE
5
1C1
100
AcDbEntity
8
gauche2
6
ByLayer
62
256
370
30
100
AcDbLine
10
-73.5
20
59.769033907
11
-73.5
21
31.6940428374
0
ARC
5
1C2
100
AcDbEntity
8
gauche2
6
ByLayer
62
256
370
30
100
AcDbCircle
10
-75.5
20
31.6940428374
40
2
100
AcDbArc
50
313.81590713
51
360
0
LINE
5
1C3
100
AcDbEntity
8
gauche2
6
ByLayer
62
256
370
30
100
AcDbLine
10
-74.1153129384
20
30.2509067587
11
-83.6177213722
21
21.1333590747
0
ARC
5
1C4
100
AcDbEntity
8
gauche2
6
ByLayer
62
256
370
30
100
AcDbCircle
10
-85.0024084337
20
22.5764951534
40
2
100
AcDbArc
50
226.317002427
51
313.81590713
0
LINE
5
1C5
100
AcDbEntity
8
gauche2
6
ByLayer
62
256
370
30
100
AcDbLine
10
-86.3837441165
20
21.1301508888
11
-95.8813356827
21
30.200855874
0
LINE
5
1C6
100
AcDbEntity
8
gauche2
6
ByLayer
62
256
370
30
100
AcDbLine
10
-96.5
20
59.7540916883
11
-96.5
21
31.6472001385
0
ARC
5
1C7
100
AcDbEntity
8
gauche2
6
ByLayer
62
256
370
30
100
AcDbCircle
10
-94.5
20
31.6472001385
40
2
100
AcDbArc
50
180
51
226.317002427
0
LINE
5
1C8
100
AcDbEntity
8
bas
6
ByLayer
62
256
370
-1
100
AcDbLine
10
270
20
-110
11
10
21
-110
0
ARC
5
1C9
100
AcDbEntity
8
haut2
6
ByLayer
62
256
370
0
100
AcDbCircle
10
60.005952
20
288.45
40
1.55001142808
100
AcDbArc
50
269.630653651
51
89.6306536507
0
ARC
5
1CA
100
AcDbEntity
8
haut2
6
ByLayer
62
256
370
0
100
AcDbCircle
10
60.009497548
20
288.999999997
40
1.0000000034
100
AcDbArc
50
89.6306552827
51
90.0000016323
0
LINE
5
1CB
100
AcDbEntity
8
haut2
6
ByLayer
62
256
370
0
100
AcDbLine
10
60.0094975195
20
290
11
40
21
290
0
ARC
5
1CC
100
AcDbEntity
8
haut2
6
ByLayer
62
256
370
0
100
AcDbCircle
10
40
20
288.45
40
1.55
100
AcDbArc
50
90
51
270
0
LINE
5
1CD
100
AcDbEntity
8
haut2
6
ByLayer
62
256
370
0
100
AcDbLine
10
40
20
286.9
11
60.0024064805
21
286.9
0
ARC
5
1CE
100
AcDbEntity
8
haut2
6
ByLayer
62
256
370
0
100
AcDbCircle
10
60.0024063903
20
287.900000013
40
1.00000001294
100
AcDbArc
50
269.630658822
51
270.000005172
0
ARC
5
1CF
100
AcDbEntity
8
haut2
6
ByLayer
62
256
370
0
100
AcDbCircle
10
90.005952
20
288.45
40
1.55001142808
100
AcDbArc
50
269.630653651
51
89.6306536507
0
ARC
5
1D0
100
AcDbEntity
8
haut2
6
ByLayer
62
256
370
0
100
AcDbCircle
10
90.009497548
20
288.999999997
40
1.0000000034
100
AcDbArc
50
89.6306552827
51
90.0000016323
0
LINE
5
1D1
100
AcDbEntity
8
haut2
6
ByLayer
62
256
370
0
100
AcDbLine
10
90.0094975195
20
290
11
70
21
290
0
ARC
5
1D2
100
AcDbEntity
8
haut2
6
ByLayer
62
256
370
0
100
AcDbCircle
10
70
20
288.45
40
1.55
100
AcDbArc
50
90
51
270
0
LINE
5
1D3
100
AcDbEntity
8
haut2
6
ByLayer
62
256
370
0
100
AcDbLine
10
70
20
286.9
11
90.0024064805
21
286.9
0
ARC
5
1D4
100
AcDbEntity
8
haut2
6
ByLayer
62
256
370
0
100
AcDbCircle
10
90.0024063903
20
287.900000013
40
1.00000001294
100
AcDbArc
50
269.630658822
51
270.000005172
0
ARC
5
1D5
100
AcDbEntity
8
haut2
6
ByLayer
62
256
370
0
100
AcDbCircle
10
120.005952
20
288.45
40
1.55001142831
100
AcDbArc
50
269.630653649
51
89.6306536495
0
ARC
5
1D6
100
AcDbEntity
8
haut2
6
ByLayer
62
256
370
0
100
AcDbCircle
10
120.00949762
20
289.000000098
40
0.999999902351
100
AcDbArc
50
89.630659353
51
90.0000057026
0
LINE
5
1D7
100
AcDbEntity
8
haut2
6
ByLayer
62
256
370
0
100
AcDbLine
10
120.00949752
20
290
11
100
21
290
0
ARC
5
1D8
100
AcDbEntity
8
haut2
6
ByLayer
62
256
370
0
100
AcDbCircle
10
100
20
288.45
40
1.55
100
AcDbArc
50
90
51
270
0
LINE
5
1D9
100
AcDbEntity
8
haut2
6
ByLayer
62
256
370
0
100
AcDbLine
10
100
20
286.9
11
120.00240648
21
286.9
0
ARC
5
1DA
100
AcDbEntity
8
haut2
6
ByLayer
62
256
370
0
100
AcDbCircle
10
120.002406462
20
287.900000025
40
1.00000002508
100
AcDbArc
50
269.630654723
51
270.000001072
0
ARC
5
1DB
100
AcDbEntity
8
haut2
6
ByLayer
62
256
370
0
100
AcDbCircle
10
150.005952
20
288.45
40
1.55001142831
100
AcDbArc
50
269.630653649
51
89.6306536495
0
ARC
5
1DC
100
AcDbEntity
8
haut2
6
ByLayer
62
256
370
0
100
AcDbCircle
10
150.009497619
20
289.000000098
40
0.999999902348
100
AcDbArc
50
89.6306593353
51
90.0000056849
0
LINE
5
1DD
100
AcDbEntity
8
haut2
6
ByLayer
62
256
370
0
100
AcDbLine
10
150.00949752
20
290
11
130
21
290
0
ARC
5
1DE
100
AcDbEntity
8
haut2
6
ByLayer
62
256
370
0
100
AcDbCircle
10
130
20
288.45
40
1.55
100
AcDbArc
50
90
51
270
0
LINE
5
1DF
100
AcDbEntity
8
haut2
6
ByLayer
62
256
370
0
100
AcDbLine
10
130
20
286.9
11
150.00240648
21
286.9
0
ARC
5
1E0
100
AcDbEntity
8
haut2
6
ByLayer
62
256
370
0
100
AcDbCircle
10
150.002406461
20
287.900000025
40
1.00000002508
100
AcDbArc
50
269.630654741
51
270.00000109
0
LINE
5
1E1
100
AcDbEntity
8
haut2
6
ByLayer
62
256
370
0
100
AcDbLine
10
145
20
276.9
11
165.00240648
21
276.9
0
ARC
5
1E2
100
AcDbEntity
8
haut2
6
ByLayer
62
256
370
0
100
AcDbCircle
10
165.002406461
20
277.900000025
40
1.00000002508
100
AcDbArc
50
269.630654741
51
270.00000109
0
ARC
5
1E3
100
AcDbEntity
8
haut2
6
ByLayer
62
256
370
0
100
AcDbCircle
10
165.005952
20
278.45
40
1.55001142831
100
AcDbArc
50
269.630653649
51
89.6306536495
0
ARC
5
1E4
100
AcDbEntity
8
haut2
6
ByLayer
62
256
370
0
100
AcDbCircle
10
165.009497619
20
279.000000098
40
0.999999902348
100
AcDbArc
50
89.6306593353
51
90.0000056849
0
LINE
5
1E5
100
AcDbEntity
8
haut2
6
ByLayer
62
256
370
0
100
AcDbLine
10
165.00949752
20
280
11
145
21
280
0
ARC
5
1E6
100
AcDbEntity
8
haut2
6
ByLayer
62
256
370
0
100
AcDbCircle
10
145
20
278.45
40
1.55
100
AcDbArc
50
90
51
270
0
ARC
5
1E7
100
AcDbEntity
8
haut2
6
ByLayer
62
256
370
0
100
AcDbCircle
10
135.005952
20
278.45
40
1.55001142831
100
AcDbArc
50
269.630653649
51
89.6306536495
0
ARC
5
1E8
100
AcDbEntity
8
haut2
6
ByLayer
62
256
370
0
100
AcDbCircle
10
135.009497619
20
279.000000098
40
0.999999902348
100
AcDbArc
50
89.6306593353
51
90.0000056849
0
LINE
5
1E9
100
AcDbEntity
8
haut2
6
ByLayer
62
256
370
0
100
AcDbLine
10
135.00949752
20
280
11
115
21
280
0
ARC
5
1EA
100
AcDbEntity
8
haut2
6
ByLayer
62
256
370
0
100
AcDbCircle
10
115
20
278.45
40
1.55
100
AcDbArc
50
90
51
270
0
LINE
5
1EB
100
AcDbEntity
8
haut2
6
ByLayer
62
256
370
0
100
AcDbLine
10
115
20
276.9
11
135.00240648
21
276.9
0
ARC
5
1EC
100
AcDbEntity
8
haut2
6
ByLayer
62
256
370
0
100
AcDbCircle
10
135.002406461
20
277.900000025
40
1.00000002508
100
AcDbArc
50
269.630654741
51
270.00000109
0
ARC
5
1ED
100
AcDbEntity
8
haut2
6
ByLayer
62
256
370
0
100
AcDbCircle
10
105.005952
20
278.45
40
1.55001142831
100
AcDbArc
50
269.630653649
51
89.6306536495
0
ARC
5
1EE
100
AcDbEntity
8
haut2
6
ByLayer
62
256
370
0
100
AcDbCircle
10
105.00949762
20
279.000000098
40
0.999999902351
100
AcDbArc
50
89.630659353
51
90.0000057026
0
LINE
5
1EF
100
AcDbEntity
8
haut2
6
ByLayer
62
256
370
0
100
AcDbLine
10
105.00949752
20
280
11
85
21
280
0
ARC
5
1F0
100
AcDbEntity
8
haut2
6
ByLayer
62
256
370
0
100
AcDbCircle
10
85
20
278.45
40
1.55
100
AcDbArc
50
90
51
270
0
LINE
5
1F1
100
AcDbEntity
8
haut2
6
ByLayer
62
256
370
0
100
AcDbLine
10
85
20
276.9
11
105.00240648
21
276.9
0
ARC
5
1F2
100
AcDbEntity
8
haut2
6
ByLayer
62
256
370
0
100
AcDbCircle
10
105.002406462
20
277.900000025
40
1.00000002508
100
AcDbArc
50
269.630654723
51
270.000001072
0
LINE
5
1F3
100
AcDbEntity
8
haut2
6
ByLayer
62
256
370
0
100
AcDbLine
10
55
20
276.9
11
75.0024064805
21
276.9
0
ARC
5
1F4
100
AcDbEntity
8
haut2
6
ByLayer
62
256
370
0
100
AcDbCircle
10
75.0024063903
20
277.900000013
40
1.00000001294
100
AcDbArc
50
269.630658822
51
270.000005172
0
ARC
5
1F5
100
AcDbEntity
8
haut2
6
ByLayer
62
256
370
0
100
AcDbCircle
10
75.005952
20
278.45
40
1.55001142808
100
AcDbArc
50
269.630653651
51
89.6306536507
0
ARC
5
1F6
100
AcDbEntity
8
haut2
6
ByLayer
62
256
370
0
100
AcDbCircle
10
75.009497548
20
278.999999997
40
1.0000000034
100
AcDbArc
50
89.6306552827
51
90.0000016323
0
LINE
5
1F7
100
AcDbEntity
8
haut2
6
ByLayer
62
256
370
0
100
AcDbLine
10
75.0094975195
20
280
11
55
21
280
0
ARC
5
1F8
100
AcDbEntity
8
haut2
6
ByLayer
62
256
370
0
100
AcDbCircle
10
55
20
278.45
40
1.55
100
AcDbArc
50
90
51
270
0
ARC
5
1F9
100
AcDbEntity
8
haut2
6
ByLayer
62
256
370
0
100
AcDbCircle
10
45.009497548
20
278.999999997
40
1.0000000034
100
AcDbArc
50
89.6306552827
51
90.0000016323
0
LINE
5
1FA
100
AcDbEntity
8
haut2
6
ByLayer
62
256
370
0
100
AcDbLine
10
45.0094975195
20
280
11
25
21
280
0
ARC
5
1FB
100
AcDbEntity
8
haut2
6
ByLayer
62
256
370
0
100
AcDbCircle
10
25
20
278.45
40
1.55
100
AcDbArc
50
90
51
270
0
LINE
5
1FC
100
AcDbEntity
8
haut2
6
ByLayer
62
256
370
0
100
AcDbLine
10
25
20
276.9
11
45.0024064805
21
276.9
0
ARC
5
1FD
100
AcDbEntity
8
haut2
6
ByLayer
62
256
370
0
100
AcDbCircle
10
45.0024063903
20
277.900000013
40
1.00000001294
100
AcDbArc
50
269.630658822
51
270.000005172
0
ARC
5
1FE
100
AcDbEntity
8
haut2
6
ByLayer
62
256
370
0
100
AcDbCircle
10
45.005952
20
278.45
40
1.55001142808
100
AcDbArc
50
269.630653651
51
89.6306536507
0
ARC
5
1FF
100
AcDbEntity
8
haut2
6
ByLayer
62
256
370
0
100
AcDbCircle
10
60.005952
20
268.45
40
1.55001142808
100
AcDbArc
50
269.630653651
51
89.6306536507
0
ARC
5
200
100
AcDbEntity
8
haut2
6
ByLayer
62
256
370
0
100
AcDbCircle
10
60.009497548
20
268.999999997
40
1.0000000034
100
AcDbArc
50
89.6306552827
51
90.0000016323
0
LINE
5
201
100
AcDbEntity
8
haut2
6
ByLayer
62
256
370
0
100
AcDbLine
10
60.0094975195
20
270
11
40
21
270
0
ARC
5
202
100
AcDbEntity
8
haut2
6
ByLayer
62
256
370
0
100
AcDbCircle
10
40
20
268.45
40
1.55
100
AcDbArc
50
90
51
270
0
LINE
5
203
100
AcDbEntity
8
haut2
6
ByLayer
62
256
370
0
100
AcDbLine
10
40
20
266.9
11
60.0024064805
21
266.9
0
ARC
5
204
100
AcDbEntity
8
haut2
6
ByLayer
62
256
370
0
100
AcDbCircle
10
60.0024063903
20
267.900000013
40
1.00000001294
100
AcDbArc
50
269.630658822
51
270.000005172
0
ARC
5
205
100
AcDbEntity
8
haut2
6
ByLayer
62
256
370
0
100
AcDbCircle
10
90.005952
20
268.45
40
1.55001142808
100
AcDbArc
50
269.630653651
51
89.6306536507
0
ARC
5
206
100
AcDbEntity
8
haut2
6
ByLayer
62
256
370
0
100
AcDbCircle
10
90.009497548
20
268.999999997
40
1.0000000034
100
AcDbArc
50
89.6306552827
51
90.0000016323
0
LINE
5
207
100
AcDbEntity
8
haut2
6
ByLayer
62
256
370
0
100
AcDbLine
10
90.0094975195
20
270
11
70
21
270
0
ARC
5
208
100
AcDbEntity
8
haut2
6
ByLayer
62
256
370
0
100
AcDbCircle
10
70
20
268.45
40
1.55
100
AcDbArc
50
90
51
270
0
LINE
5
209
100
AcDbEntity
8
haut2
6
ByLayer
62
256
370
0
100
AcDbLine
10
70
20
266.9
11
90.0024064805
21
266.9
0
ARC
5
20A
100
AcDbEntity
8
haut2
6
ByLayer
62
256
370
0
100
AcDbCircle
10
90.0024063903
20
267.900000013
40
1.00000001294
100
AcDbArc
50
269.630658822
51
270.000005172
0
ARC
5
20B
100
AcDbEntity
8
haut2
6
ByLayer
62
256
370
0
100
AcDbCircle
10
120.005952
20
268.45
40
1.55001142831
100
AcDbArc
50
269.630653649
51
89.6306536495
0
ARC
5
20C
100
AcDbEntity
8
haut2
6
ByLayer
62
256
370
0
100
AcDbCircle
10
120.00949762
20
269.000000098
40
0.999999902351
100
AcDbArc
50
89.630659353
51
90.0000057026
0
LINE
5
20D
100
AcDbEntity
8
haut2
6
ByLayer
62
256
370
0
100
AcDbLine
10
120.00949752
20
270
11
100
21
270
0
ARC
5
20E
100
AcDbEntity
8
haut2
6
ByLayer
62
256
370
0
100
AcDbCircle
10
100
20
268.45
40
1.55
100
AcDbArc
50
90
51
270
0
LINE
5
20F
100
AcDbEntity
8
haut2
6
ByLayer
62
256
370
0
100
AcDbLine
10
100
20
266.9
11
120.00240648
21
266.9
0
ARC
5
210
100
AcDbEntity
8
haut2
6
ByLayer
62
256
370
0
100
AcDbCircle
10
120.002406462
20
267.900000025
40
1.00000002508
100
AcDbArc
50
269.630654723
51
270.000001072
0
ARC
5
211
100
AcDbEntity
8
haut2
6
ByLayer
62
256
370
0
100
AcDbCircle
10
150.002406461
20
267.900000025
40
1.00000002508
100
AcDbArc
50
269.630654741
51
270.00000109
0
ARC
5
212
100
AcDbEntity
8
haut2
6
ByLayer
62
256
370
0
100
AcDbCircle
10
150.005952
20
268.45
40
1.55001142831
100
AcDbArc
50
269.630653649
51
89.6306536495
0
ARC
5
213
100
AcDbEntity
8
haut2
6
ByLayer
62
256
370
0
100
AcDbCircle
10
150.009497619
20
269.000000098
40
0.999999902348
100
AcDbArc
50
89.6306593353
51
90.0000056849
0
LINE
5
214
100
AcDbEntity
8
haut2
6
ByLayer
62
256
370
0
100
AcDbLine
10
150.00949752
20
270
11
130
21
270
0
ARC
5
215
100
AcDbEntity
8
haut2
6
ByLayer
62
256
370
0
100
AcDbCircle
10
130
20
268.45
40
1.55
100
AcDbArc
50
90
51
270
0
LINE
5
216
100
AcDbEntity
8
haut2
6
ByLayer
62
256
370
0
100
AcDbLine
10
130
20
266.9
11
150.00240648
21
266.9
0
ARC
5
217
100
AcDbEntity
8
haut2
6
ByLayer
62
256
370
0
100
AcDbCircle
10
165.005952
20
258.45
40
1.55001142831
100
AcDbArc
50
269.630653649
51
89.6306536495
0
ARC
5
218
100
AcDbEntity
8
haut2
6
ByLayer
62
256
370
0
100
AcDbCircle
10
165.009497619
20
259.000000098
40
0.999999902348
100
AcDbArc
50
89.6306593353
51
90.0000056849
0
LINE
5
219
100
AcDbEntity
8
haut2
6
ByLayer
62
256
370
0
100
AcDbLine
10
165.00949752
20
260
11
145
21
260
0
ARC
5
21A
100
AcDbEntity
8
haut2
6
ByLayer
62
256
370
0
100
AcDbCircle
10
145
20
258.45
40
1.55
100
AcDbArc
50
90
51
270
0
LINE
5
21B
100
AcDbEntity
8
haut2
6
ByLayer
62
256
370
0
100
AcDbLine
10
145
20
256.9
11
165.00240648
21
256.9
0
ARC
5
21C
100
AcDbEntity
8
haut2
6
ByLayer
62
256
370
0
100
AcDbCircle
10
165.002406461
20
257.900000025
40
1.00000002508
100
AcDbArc
50
269.630654741
51
270.00000109
0
ARC
5
21D
100
AcDbEntity
8
haut2
6
ByLayer
62
256
370
0
100
AcDbCircle
10
135.005952
20
258.45
40
1.55001142831
100
AcDbArc
50
269.630653649
51
89.6306536495
0
ARC
5
21E
100
AcDbEntity
8
haut2
6
ByLayer
62
256
370
0
100
AcDbCircle
10
135.009497619
20
259.000000098
40
0.999999902348
100
AcDbArc
50
89.6306593353
51
90.0000056849
0
LINE
5
21F
100
AcDbEntity
8
haut2
6
ByLayer
62
256
370
0
100
AcDbLine
10
135.00949752
20
260
11
115
21
260
0
ARC
5
220
100
AcDbEntity
8
haut2
6
ByLayer
62
256
370
0
100
AcDbCircle
10
115
20
258.45
40
1.55
100
AcDbArc
50
90
51
270
0
LINE
5
221
100
AcDbEntity
8
haut2
6
ByLayer
62
256
370
0
100
AcDbLine
10
115
20
256.9
11
135.00240648
21
256.9
0
ARC
5
222
100
AcDbEntity
8
haut2
6
ByLayer
62
256
370
0
100
AcDbCircle
10
135.002406461
20
257.900000025
40
1.00000002508
100
AcDbArc
50
269.630654741
51
270.00000109
0
ARC
5
223
100
AcDbEntity
8
haut2
6
ByLayer
62
256
370
0
100
AcDbCircle
10
105.005952
20
258.45
40
1.55001142831
100
AcDbArc
50
269.630653649
51
89.6306536495
0
ARC
5
224
100
AcDbEntity
8
haut2
6
ByLayer
62
256
370
0
100
AcDbCircle
10
105.00949762
20
259.000000098
40
0.999999902351
100
AcDbArc
50
89.630659353
51
90.0000057026
0
LINE
5
225
100
AcDbEntity
8
haut2
6
ByLayer
62
256
370
0
100
AcDbLine
10
105.00949752
20
260
11
85
21
260
0
ARC
5
226
100
AcDbEntity
8
haut2
6
ByLayer
62
256
370
0
100
AcDbCircle
10
85
20
258.45
40
1.55
100
AcDbArc
50
90
51
270
0
LINE
5
227
100
AcDbEntity
8
haut2
6
ByLayer
62
256
370
0
100
AcDbLine
10
85
20
256.9
11
105.00240648
21
256.9
0
ARC
5
228
100
AcDbEntity
8
haut2
6
ByLayer
62
256
370
0
100
AcDbCircle
10
105.002406462
20
257.900000025
40
1.00000002508
100
AcDbArc
50
269.630654723
51
270.000001072
0
ARC
5
229
100
AcDbEntity
8
haut2
6
ByLayer
62
256
370
0
100
AcDbCircle
10
75.005952
20
258.45
40
1.55001142808
100
AcDbArc
50
269.630653651
51
89.6306536507
0
ARC
5
22A
100
AcDbEntity
8
haut2
6
ByLayer
62
256
370
0
100
AcDbCircle
10
75.009497548
20
258.999999997
40
1.0000000034
100
AcDbArc
50
89.6306552827
51
90.0000016323
0
LINE
5
22B
100
AcDbEntity
8
haut2
6
ByLayer
62
256
370
0
100
AcDbLine
10
75.0094975195
20
260
11
55
21
260
0
ARC
5
22C
100
AcDbEntity
8
haut2
6
ByLayer
62
256
370
0
100
AcDbCircle
10
55
20
258.45
40
1.55
100
AcDbArc
50
90
51
270
0
LINE
5
22D
100
AcDbEntity
8
haut2
6
ByLayer
62
256
370
0
100
AcDbLine
10
55
20
256.9
11
75.0024064805
21
256.9
0
ARC
5
22E
100
AcDbEntity
8
haut2
6
ByLayer
62
256
370
0
100
AcDbCircle
10
75.0024063903
20
257.900000013
40
1.00000001294
100
AcDbArc
50
269.630658822
51
270.000005172
0
ARC
5
22F
100
AcDbEntity
8
haut2
6
ByLayer
62
256
370
0
100
AcDbCircle
10
45.009497548
20
258.999999997
40
1.0000000034
100
AcDbArc
50
89.6306552827
51
90.0000016323
0
LINE
5
230
100
AcDbEntity
8
haut2
6
ByLayer
62
256
370
0
100
AcDbLine
10
45.0094975195
20
260
11
25
21
260
0
ARC
5
231
100
AcDbEntity
8
haut2
6
ByLayer
62
256
370
0
100
AcDbCircle
10
25
20
258.45
40
1.55
100
AcDbArc
50
90
51
270
0
LINE
5
232
100
AcDbEntity
8
haut2
6
ByLayer
62
256
370
0
100
AcDbLine
10
25
20
256.9
11
45.0024064805
21
256.9
0
ARC
5
233
100
AcDbEntity
8
haut2
6
ByLayer
62
256
370
0
100
AcDbCircle
10
45.0024063903
20
257.900000013
40
1.00000001294
100
AcDbArc
50
269.630658822
51
270.000005172
0
ARC
5
234
100
AcDbEntity
8
haut2
6
ByLayer
62
256
370
0
100
AcDbCircle
10
45.005952
20
258.45
40
1.55001142808
100
AcDbArc
50
269.630653651
51
89.6306536507
0
LINE
5
235
100
AcDbEntity
8
haut2
6
ByLayer
62
256
370
0
100
AcDbLine
10
40
20
246.9
11
60.0024064805
21
246.9
0
ARC
5
236
100
AcDbEntity
8
haut2
6
ByLayer
62
256
370
0
100
AcDbCircle
10
60.0024063903
20
247.900000013
40
1.00000001294
100
AcDbArc
50
269.630658822
51
270.000005172
0
ARC
5
237
100
AcDbEntity
8
haut2
6
ByLayer
62
256
370
0
100
AcDbCircle
10
60.005952
20
248.45
40
1.55001142808
100
AcDbArc
50
269.630653651
51
89.6306536507
0
ARC
5
238
100
AcDbEntity
8
haut2
6
ByLayer
62
256
370
0
100
AcDbCircle
10
60.009497548
20
248.999999997
40
1.0000000034
100
AcDbArc
50
89.6306552827
51
90.0000016323
0
LINE
5
239
100
AcDbEntity
8
haut2
6
ByLayer
62
256
370
0
100
AcDbLine
10
60.0094975195
20
250
11
40
21
250
0
ARC
5
23A
100
AcDbEntity
8
haut2
6
ByLayer
62
256
370
0
100
AcDbCircle
10
40
20
248.45
40
1.55
100
AcDbArc
50
90
51
270
0
ARC
5
23B
100
AcDbEntity
8
haut2
6
ByLayer
62
256
370
0
100
AcDbCircle
10
90.005952
20
248.45
40
1.55001142808
100
AcDbArc
50
269.630653651
51
89.6306536507
0
ARC
5
23C
100
AcDbEntity
8
haut2
6
ByLayer
62
256
370
0
100
AcDbCircle
10
90.009497548
20
248.999999997
40
1.0000000034
100
AcDbArc
50
89.6306552827
51
90.0000016323
0
LINE
5
23D
100
AcDbEntity
8
haut2
6
ByLayer
62
256
370
0
100
AcDbLine
10
90.0094975195
20
250
11
70
21
250
0
ARC
5
23E
100
AcDbEntity
8
haut2
6
ByLayer
62
256
370
0
100
AcDbCircle
10
70
20
248.45
40
1.55
100
AcDbArc
50
90
51
270
0
LINE
5
23F
100
AcDbEntity
8
haut2
6
ByLayer
62
256
370
0
100
AcDbLine
10
70
20
246.9
11
90.0024064805
21
246.9
0
ARC
5
240
100
AcDbEntity
8
haut2
6
ByLayer
62
256
370
0
100
AcDbCircle
10
90.0024063903
20
247.900000013
40
1.00000001294
100
AcDbArc
50
269.630658822
51
270.000005172
0
ARC
5
241
100
AcDbEntity
8
haut2
6
ByLayer
62
256
370
0
100
AcDbCircle
10
120.005952
20
248.45
40
1.55001142831
100
AcDbArc
50
269.630653649
51
89.6306536495
0
ARC
5
242
100
AcDbEntity
8
haut2
6
ByLayer
62
256
370
0
100
AcDbCircle
10
120.00949762
20
249.000000098
40
0.999999902351
100
AcDbArc
50
89.630659353
51
90.0000057026
0
LINE
5
243
100
AcDbEntity
8
haut2
6
ByLayer
62
256
370
0
100
AcDbLine
10
120.00949752
20
250
11
100
21
250
0
ARC
5
244
100
AcDbEntity
8
haut2
6
ByLayer
62
256
370
0
100
AcDbCircle
10
100
20
248.45
40
1.55
100
AcDbArc
50
90
51
270
0
LINE
5
245
100
AcDbEntity
8
haut2
6
ByLayer
62
256
370
0
100
AcDbLine
10
100
20
246.9
11
120.00240648
21
246.9
0
ARC
5
246
100
AcDbEntity
8
haut2
6
ByLayer
62
256
370
0
100
AcDbCircle
10
120.002406462
20
247.900000025
40
1.00000002508
100
AcDbArc
50
269.630654723
51
270.000001072
0
ARC
5
247
100
AcDbEntity
8
haut2
6
ByLayer
62
256
370
0
100
AcDbCircle
10
150.005952
20
248.45
40
1.55001142831
100
AcDbArc
50
269.630653649
51
89.6306536495
0
ARC
5
248
100
AcDbEntity
8
haut2
6
ByLayer
62
256
370
0
100
AcDbCircle
10
150.009497619
20
249.000000098
40
0.999999902348
100
AcDbArc
50
89.6306593353
51
90.0000056849
0
LINE
5
249
100
AcDbEntity
8
haut2
6
ByLayer
62
256
370
0
100
AcDbLine
10
150.00949752
20
250
11
130
21
250
0
ARC
5
24A
100
AcDbEntity
8
haut2
6
ByLayer
62
256
370
0
100
AcDbCircle
10
130
20
248.45
40
1.55
100
AcDbArc
50
90
51
270
0
LINE
5
24B
100
AcDbEntity
8
haut2
6
ByLayer
62
256
370
0
100
AcDbLine
10
130
20
246.9
11
150.00240648
21
246.9
0
ARC
5
24C
100
AcDbEntity
8
haut2
6
ByLayer
62
256
370
0
100
AcDbCircle
10
150.002406461
20
247.900000025
40
1.00000002508
100
AcDbArc
50
269.630654741
51
270.00000109
0
LINE
5
24D
100
AcDbEntity
8
haut1
6
ByLayer
62
256
370
-1
100
AcDbLine
10
270
20
300
11
10
21
300
0
LINE
5
24E
100
AcDbEntity
8
haut1
6
ByLayer
62
256
370
0
100
AcDbLine
10
30
20
200
11
30
21
210
0
LINE
5
24F
100
AcDbEntity
8
haut1
6
ByLayer
62
256
370
0
100
AcDbLine
10
30
20
210
11
50
21
210
0
LINE
5
250
100
AcDbEntity
8
haut1
6
ByLayer
62
256
370
0
100
AcDbLine
10
50
20
210
11
50
21
200
0
LINE
5
251
100
AcDbEntity
8
haut1
6
ByLayer
62
256
370
0
100
AcDbLine
10
50
20
200
11
70
21
200
0
LINE
5
252
100
AcDbEntity
8
haut1
6
ByLayer
62
256
370
0
100
AcDbLine
10
70
20
200
11
70
21
210
0
LINE
5
253
100
AcDbEntity
8
haut1
6
ByLayer
62
256
370
0
100
AcDbLine
10
70
20
210
11
90
21
210
0
LINE
5
254
100
AcDbEntity
8
haut1
6
ByLayer
62
256
370
0
100
AcDbLine
10
90
20
210
11
90
21
200
0
LINE
5
255
100
AcDbEntity
8
haut1
6
ByLayer
62
256
370
0
100
AcDbLine
10
90
20
200
11
110
21
200
0
LINE
5
256
100
AcDbEntity
8
haut1
6
ByLayer
62
256
370
0
100
AcDbLine
10
110
20
200
11
110
21
210
0
LINE
5
257
100
AcDbEntity
8
haut1
6
ByLayer
62
256
370
0
100
AcDbLine
10
110
20
210
11
130
21
210
0
LINE
5
258
100
AcDbEntity
8
haut1
6
ByLayer
62
256
370
0
100
AcDbLine
10
130
20
210
11
130
21
200
0
LINE
5
259
100
AcDbEntity
8
haut1
6
ByLayer
62
256
370
0
100
AcDbLine
10
130
20
200
11
150
21
200
0
LINE
5
25A
100
AcDbEntity
8
haut1
6
ByLayer
62
256
370
0
100
AcDbLine
10
150
20
200
11
150
21
210
0
LINE
5
25B
100
AcDbEntity
8
haut1
6
ByLayer
62
256
370
0
100
AcDbLine
10
150
20
210
11
170
21
210
0
LINE
5
25C
100
AcDbEntity
8
haut1
6
ByLayer
62
256
370
0
100
AcDbLine
10
170
20
210
11
170
21
200
0
LINE
5
25D
100
AcDbEntity
8
haut1
6
ByLayer
62
256
370
0
100
AcDbLine
10
170
20
200
11
190
21
200
0
LINE
5
25E
100
AcDbEntity
8
haut1
6
ByLayer
62
256
370
0
100
AcDbLine
10
190
20
200
11
190
21
210
0
LINE
5
25F
100
AcDbEntity
8
haut1
6
ByLayer
62
256
370
0
100
AcDbLine
10
190
20
210
11
210
21
210
0
LINE
5
260
100
AcDbEntity
8
haut1
6
ByLayer
62
256
370
0
100
AcDbLine
10
210
20
210
11
210
21
200
0
LINE
5
261
100
AcDbEntity
8
haut1
6
ByLayer
62
256
370
0
100
AcDbLine
10
210
20
200
11
230
21
200
0
LINE
5
262
100
AcDbEntity
8
haut1
6
ByLayer
62
256
370
0
100
AcDbLine
10
230
20
200
11
230
21
210
0
LINE
5
263
100
AcDbEntity
8
haut1
6
ByLayer
62
256
370
0
100
AcDbLine
10
230
20
210
11
250
21
210
0
LINE
5
264
100
AcDbEntity
8
haut1
6
ByLayer
62
256
370
0
100
AcDbLine
10
250
20
210
11
250
21
200
0
LINE
5
265
100
AcDbEntity
8
haut1
6
ByLayer
62
256
370
0
100
AcDbLine
10
250
20
200
11
270
21
200
0
LINE
5
266
100
AcDbEntity
8
haut1
6
ByLayer
62
256
370
0
100
AcDbLine
10
270
20
200
11
270
21
220
0
LINE
5
267
100
AcDbEntity
8
haut1
6
ByLayer
62
256
370
0
100
AcDbLine
10
270
20
220
11
280
21
220
0
LINE
5
268
100
AcDbEntity
8
haut1
6
ByLayer
62
256
370
0
100
AcDbLine
10
280
20
220
11
280
21
240
0
LINE
5
269
100
AcDbEntity
8
haut1
6
ByLayer
62
256
370
0
100
AcDbLine
10
280
20
240
11
270
21
240
0
LINE
5
26A
100
AcDbEntity
8
haut1
6
ByLayer
62
256
370
0
100
AcDbLine
10
270
20
240
11
270
21
260
0
LINE
5
26B
100
AcDbEntity
8
haut1
6
ByLayer
62
256
370
0
100
AcDbLine
10
270
20
260
11
280
21
260
0
LINE
5
26C
100
AcDbEntity
8
haut1
6
ByLayer
62
256
370
0
100
AcDbLine
10
280
20
260
11
280
21
280
0
LINE
5
26D
100
AcDbEntity
8
haut1
6
ByLayer
62
256
370
0
100
AcDbLine
10
280
20
280
11
270
21
280
0
LINE
5
26E
100
AcDbEntity
8
haut1
6
ByLayer
62
256
370
0
100
AcDbLine
10
270
20
280
11
270
21
300
0
LINE
5
26F
100
AcDbEntity
8
haut1
6
ByLayer
62
256
370
0
100
AcDbLine
10
10
20
300
11
10
21
280
0
LINE
5
270
100
AcDbEntity
8
haut1
6
ByLayer
62
256
370
0
100
AcDbLine
10
10
20
280
11
0
21
280
0
LINE
5
271
100
AcDbEntity
8
haut1
6
ByLayer
62
256
370
0
100
AcDbLine
10
0
20
280
11
0
21
260
0
LINE
5
272
100
AcDbEntity
8
haut1
6
ByLayer
62
256
370
0
100
AcDbLine
10
0
20
260
11
10
21
260
0
LINE
5
273
100
AcDbEntity
8
haut1
6
ByLayer
62
256
370
0
100
AcDbLine
10
10
20
260
11
10
21
240
0
LINE
5
274
100
AcDbEntity
8
haut1
6
ByLayer
62
256
370
0
100
AcDbLine
10
10
20
240
11
0
21
240
0
LINE
5
275
100
AcDbEntity
8
haut1
6
ByLayer
62
256
370
0
100
AcDbLine
10
0
20
240
11
0
21
220
0
LINE
5
276
100
AcDbEntity
8
haut1
6
ByLayer
62
256
370
0
100
AcDbLine
10
0
20
220
11
10
21
220
0
LINE
5
277
100
AcDbEntity
8
haut1
6
ByLayer
62
256
370
0
100
AcDbLine
10
10
20
220
11
10
21
200
0
LINE
5
278
100
AcDbEntity
8
haut1
6
ByLayer
62
256
370
0
100
AcDbLine
10
10
20
200
11
30
21
200
0
LINE
5
279
100
AcDbEntity
8
gauche1
6
ByLayer
62
256
370
0
100
AcDbLine
10
-20
20
42.5
11
-20
21
63.5
0
LINE
5
27A
100
AcDbEntity
8
gauche1
6
ByLayer
62
256
370
0
100
AcDbLine
10
-20
20
63.5
11
-30
21
63.5
0
LINE
5
27B
100
AcDbEntity
8
gauche1
6
ByLayer
62
256
370
0
100
AcDbLine
10
-30
20
63.5
11
-30
21
84.5
0
LINE
5
27C
100
AcDbEntity
8
gauche1
6
ByLayer
62
256
370
0
100
AcDbLine
10
-30
20
84.5
11
-20
21
84.5
0
LINE
5
27D
100
AcDbEntity
8
gauche1
6
ByLayer
62
256
370
0
100
AcDbLine
10
-20
20
84.5
11
-20
21
105.5
0
LINE
5
27E
100
AcDbEntity
8
gauche1
6
ByLayer
62
256
370
0
100
AcDbLine
10
-20
20
105.5
11
-30
21
105.5
0
LINE
5
27F
100
AcDbEntity
8
gauche1
6
ByLayer
62
256
370
0
100
AcDbLine
10
-30
20
105.5
11
-30
21
126.5
0
LINE
5
280
100
AcDbEntity
8
gauche1
6
ByLayer
62
256
370
0
100
AcDbLine
10
-30
20
126.5
11
-20
21
126.5
0
LINE
5
281
100
AcDbEntity
8
gauche1
6
ByLayer
62
256
370
0
100
AcDbLine
10
-20
20
126.5
11
-20
21
147.5
0
LINE
5
282
100
AcDbEntity
8
gauche1
6
ByLayer
62
256
370
0
100
AcDbLine
10
-20
20
147.5
11
-30
21
147.5
0
LINE
5
283
100
AcDbEntity
8
gauche1
6
ByLayer
62
256
370
0
100
AcDbLine
10
-30
20
147.5
11
-30
21
168.5
0
LINE
5
284
100
AcDbEntity
8
gauche1
6
ByLayer
62
256
370
0
100
AcDbLine
10
-30
20
168.5
11
-20
21
168.5
0
LINE
5
285
100
AcDbEntity
8
gauche1
6
ByLayer
62
256
370
0
100
AcDbLine
10
-20
20
168.5
11
-20
21
190
0
LINE
5
286
100
AcDbEntity
8
gauche1
6
ByLayer
62
256
370
0
100
AcDbLine
10
-20
20
190
11
-40
21
190
0
LINE
5
287
100
AcDbEntity
8
gauche1
6
ByLayer
62
256
370
0
100
AcDbLine
10
-40
20
190
11
-40
21
180
0
LINE
5
288
100
AcDbEntity
8
gauche1
6
ByLayer
62
256
370
0
100
AcDbLine
10
-40
20
180
11
-60
21
180
0
LINE
5
289
100
AcDbEntity
8
gauche1
6
ByLayer
62
256
370
0
100
AcDbLine
10
-60
20
180
11
-60
21
190
0
LINE
5
28A
100
AcDbEntity
8
gauche1
6
ByLayer
62
256
370
0
100
AcDbLine
10
-60
20
190
11
-80
21
190
0
LINE
5
28B
100
AcDbEntity
8
gauche1
6
ByLayer
62
256
370
0
100
AcDbLine
10
-80
20
190
11
-80
21
180
0
LINE
5
28C
100
AcDbEntity
8
gauche1
6
ByLayer
62
256
370
0
100
AcDbLine
10
-80
20
180
11
-100
21
180
0
LINE
5
28D
100
AcDbEntity
8
gauche1
6
ByLayer
62
256
370
0
100
AcDbLine
10
-100
20
180
11
-100
21
190
0
LINE
5
28E
100
AcDbEntity
8
gauche1
6
ByLayer
62
256
370
0
100
AcDbLine
10
-100
20
-0
11
-100
21
10
0
LINE
5
28F
100
AcDbEntity
8
gauche1
6
ByLayer
62
256
370
0
100
AcDbLine
10
-100
20
10
11
-80
21
10
0
LINE
5
290
100
AcDbEntity
8
gauche1
6
ByLayer
62
256
370
0
100
AcDbLine
10
-80
20
10
11
-80
21
-0
0
LINE
5
291
100
AcDbEntity
8
gauche1
6
ByLayer
62
256
370
0
100
AcDbLine
10
-80
20
-0
11
-60
21
-0
0
LINE
5
292
100
AcDbEntity
8
gauche1
6
ByLayer
62
256
370
0
100
AcDbLine
10
-60
20
-0
11
-60
21
10
0
LINE
5
293
100
AcDbEntity
8
gauche1
6
ByLayer
62
256
370
0
100
AcDbLine
10
-60
20
10
11
-40
21
10
0
LINE
5
294
100
AcDbEntity
8
gauche1
6
ByLayer
62
256
370
0
100
AcDbLine
10
-40
20
10
11
-40
21
-0
0
LINE
5
295
100
AcDbEntity
8
gauche1
6
ByLayer
62
256
370
0
100
AcDbLine
10
-40
20
-0
11
-20
21
0
0
LINE
5
296
100
AcDbEntity
8
gauche1
6
ByLayer
62
256
370
0
100
AcDbLine
10
-20
20
0
11
-20
21
21.5
0
LINE
5
297
100
AcDbEntity
8
gauche1
6
ByLayer
62
256
370
0
100
AcDbLine
10
-20
20
21.5
11
-30
21
21.5
0
LINE
5
298
100
AcDbEntity
8
gauche1
6
ByLayer
62
256
370
0
100
AcDbLine
10
-30
20
21.5
11
-30
21
42.5
0
LINE
5
299
100
AcDbEntity
8
gauche1
6
ByLayer
62
256
370
0
100
AcDbLine
10
-30
20
42.5
11
-20
21
42.5
0
LINE
5
29A
100
AcDbEntity
8
droite1
6
ByLayer
62
256
370
0
100
AcDbLine
10
310
20
105.5
11
300
21
105.5
0
LINE
5
29B
100
AcDbEntity
8
droite1
6
ByLayer
62
256
370
0
100
AcDbLine
10
300
20
105.5
11
300
21
84.5
0
LINE
5
29C
100
AcDbEntity
8
droite1
6
ByLayer
62
256
370
0
100
AcDbLine
10
300
20
84.5
11
310
21
84.5
0
LINE
5
29D
100
AcDbEntity
8
droite1
6
ByLayer
62
256
370
0
100
AcDbLine
10
310
20
84.5
11
310
21
63.5
0
LINE
5
29E
100
AcDbEntity
8
droite1
6
ByLayer
62
256
370
0
100
AcDbLine
10
310
20
63.5
11
300
21
63.5
0
LINE
5
29F
100
AcDbEntity
8
droite1
6
ByLayer
62
256
370
0
100
AcDbLine
10
300
20
63.5
11
300
21
42.5
0
LINE
5
2A0
100
AcDbEntity
8
droite1
6
ByLayer
62
256
370
0
100
AcDbLine
10
300
20
42.5
11
310
21
42.5
0
LINE
5
2A1
100
AcDbEntity
8
droite1
6
ByLayer
62
256
370
0
100
AcDbLine
10
310
20
42.5
11
310
21
21.5
0
LINE
5
2A2
100
AcDbEntity
8
droite1
6
ByLayer
62
256
370
0
100
AcDbLine
10
310
20
21.5
11
300
21
21.5
0
LINE
5
2A3
100
AcDbEntity
8
droite1
6
ByLayer
62
256
370
0
100
AcDbLine
10
300
20
21.5
11
300
21
0
0
LINE
5
2A4
100
AcDbEntity
8
droite1
6
ByLayer
62
256
370
0
100
AcDbLine
10
300
20
0
11
320
21
0
0
LINE
5
2A5
100
AcDbEntity
8
droite1
6
ByLayer
62
256
370
0
100
AcDbLine
10
320
20
0
11
320
21
10
0
LINE
5
2A6
100
AcDbEntity
8
droite1
6
ByLayer
62
256
370
0
100
AcDbLine
10
320
20
10
11
340
21
10
0
LINE
5
2A7
100
AcDbEntity
8
droite1
6
ByLayer
62
256
370
0
100
AcDbLine
10
340
20
10
11
340
21
0
0
LINE
5
2A8
100
AcDbEntity
8
droite1
6
ByLayer
62
256
370
0
100
AcDbLine
10
340
20
0
11
360
21
0
0
LINE
5
2A9
100
AcDbEntity
8
droite1
6
ByLayer
62
256
370
0
100
AcDbLine
10
360
20
0
11
360
21
10
0
LINE
5
2AA
100
AcDbEntity
8
droite1
6
ByLayer
62
256
370
0
100
AcDbLine
10
360
20
10
11
380
21
10
0
LINE
5
2AB
100
AcDbEntity
8
droite1
6
ByLayer
62
256
370
0
100
AcDbLine
10
380
20
10
11
380
21
0
0
LINE
5
2AC
100
AcDbEntity
8
droite1
6
ByLayer
62
256
370
0
100
AcDbLine
10
380
20
190
11
380
21
180
0
LINE
5
2AD
100
AcDbEntity
8
droite1
6
ByLayer
62
256
370
0
100
AcDbLine
10
380
20
180
11
360
21
180
0
LINE
5
2AE
100
AcDbEntity
8
droite1
6
ByLayer
62
256
370
0
100
AcDbLine
10
360
20
180
11
360
21
190
0
LINE
5
2AF
100
AcDbEntity
8
droite1
6
ByLayer
62
256
370
0
100
AcDbLine
10
360
20
190
11
340
21
190
0
LINE
5
2B0
100
AcDbEntity
8
droite1
6
ByLayer
62
256
370
0
100
AcDbLine
10
340
20
190
11
340
21
180
0
LINE
5
2B1
100
AcDbEntity
8
droite1
6
ByLayer
62
256
370
0
100
AcDbLine
10
340
20
180
11
320
21
180
0
LINE
5
2B2
100
AcDbEntity
8
droite1
6
ByLayer
62
256
370
0
100
AcDbLine
10
320
20
180
11
320
21
190
0
LINE
5
2B3
100
AcDbEntity
8
droite1
6
ByLayer
62
256
370
0
100
AcDbLine
10
320
20
190
11
300
21
190
0
LINE
5
2B4
100
AcDbEntity
8
droite1
6
ByLayer
62
256
370
0
100
AcDbLine
10
300
20
190
11
300
21
168.5
0
LINE
5
2B5
100
AcDbEntity
8
droite1
6
ByLayer
62
256
370
0
100
AcDbLine
10
300
20
168.5
11
310
21
168.5
0
LINE
5
2B6
100
AcDbEntity
8
droite1
6
ByLayer
62
256
370
0
100
AcDbLine
10
310
20
168.5
11
310
21
147.5
0
LINE
5
2B7
100
AcDbEntity
8
droite1
6
ByLayer
62
256
370
0
100
AcDbLine
10
310
20
147.5
11
300
21
147.5
0
LINE
5
2B8
100
AcDbEntity
8
droite1
6
ByLayer
62
256
370
0
100
AcDbLine
10
300
20
147.5
11
300
21
126.5
0
LINE
5
2B9
100
AcDbEntity
8
droite1
6
ByLayer
62
256
370
0
100
AcDbLine
10
300
20
126.5
11
310
21
126.5
0
LINE
5
2BA
100
AcDbEntity
8
droite1
6
ByLayer
62
256
370
0
100
AcDbLine
10
310
20
126.5
11
310
21
105.5
0
LINE
5
2BB
100
AcDbEntity
8
droite1
6
ByLayer
62
256
370
0
100
AcDbLine
10
410
20
190
11
380
21
190
0
LINE
5
2BC
100
AcDbEntity
8
droite1
6
ByLayer
62
256
370
-1
100
AcDbLine
10
410
20
190
11
410
21
180
0
LINE
5
2BD
100
AcDbEntity
8
droite1
6
ByLayer
62
256
370
-1
100
AcDbLine
10
410
20
180
11
400
21
180
0
LINE
5
2BE
100
AcDbEntity
8
droite1
6
ByLayer
62
256
370
0
100
AcDbLine
10
380
20
0
11
410
21
0
0
LINE
5
2BF
100
AcDbEntity
8
droite1
6
ByLayer
62
256
370
-1
100
AcDbLine
10
410
20
10
11
410
21
0
0
LINE
5
2C0
100
AcDbEntity
8
droite1
6
ByLayer
62
256
370
-1
100
AcDbLine
10
400
20
10
11
400
21
180
0
LINE
5
2C1
100
AcDbEntity
8
droite1
6
ByLayer
62
256
370
-1
100
AcDbLine
10
400
20
10
11
410
21
10
0
LINE
5
2C2
100
AcDbEntity
8
gauche1
6
ByLayer
62
256
370
0
100
AcDbLine
10
-130
20
0
11
-100
21
-0
0
LINE
5
2C3
100
AcDbEntity
8
gauche1
6
ByLayer
62
256
370
-1
100
AcDbLine
10
-130
20
0
11
-130
21
10
0
LINE
5
2C4
100
AcDbEntity
8
gauche1
6
ByLayer
62
256
370
-1
100
AcDbLine
10
-130
20
10
11
-120
21
10
0
LINE
5
2C5
100
AcDbEntity
8
gauche1
6
ByLayer
62
256
370
0
100
AcDbLine
10
-100
20
190
11
-130
21
190
0
LINE
5
2C6
100
AcDbEntity
8
gauche1
6
ByLayer
62
256
370
-1
100
AcDbLine
10
-130
20
180
11
-130
21
190
0
LINE
5
2C7
100
AcDbEntity
8
gauche1
6
ByLayer
62
256
370
-1
100
AcDbLine
10
-120
20
180
11
-120
21
10
0
LINE
5
2C8
100
AcDbEntity
8
gauche1
6
ByLayer
62
256
370
-1
100
AcDbLine
10
-120
20
180
11
-130
21
180
0
ENDSEC
0
SECTION
2
OBJECTS
0
DICTIONARY
5
C
330
0
100
AcDbDictionary
281
1
3
ACAD_GROUP
350
D
0
DICTIONARY
5
D
330
C
100
AcDbDictionary
281
1
0
ENDSEC
0
EOF
